<?xml version="1.0" standalone="no"?>
<!DOCTYPE svg PUBLIC "-//W3C//DTD SVG 20010904//EN"
 "http://www.w3.org/TR/2001/REC-SVG-20010904/DTD/svg10.dtd">
<svg version="1.0" xmlns="http://www.w3.org/2000/svg"
 width="736.000000pt" height="673.000000pt" viewBox="0 0 736.000000 673.000000"
 preserveAspectRatio="xMidYMid meet">

<g transform="translate(0.000000,673.000000) scale(0.100000,-0.100000)"
fill="#000000" stroke="none">
<path d="M5524 6705 c-28 -14 -63 -39 -80 -56 l-29 -30 55 25 c72 34 115 33
185 -4 69 -36 83 -37 91 -6 20 81 -115 124 -222 71z"/>
<path d="M6463 6680 c-40 -24 -53 -48 -42 -77 11 -30 25 -29 101 7 75 36 133
38 197 10 24 -11 46 -18 48 -16 7 7 -77 65 -116 82 -50 21 -149 18 -188 -6z"/>
<path d="M2398 6445 c-43 -14 -98 -62 -98 -86 0 -18 20 -49 32 -49 7 0 38 18
69 40 68 47 129 63 196 51 26 -5 49 -8 51 -6 2 2 -21 15 -50 29 -68 33 -138
40 -200 21z"/>
<path d="M5747 6340 c7 -8 20 -15 29 -16 9 -1 13 1 9 4 -4 4 -10 7 -13 7 -4 0
-14 4 -22 9 -12 7 -13 6 -3 -4z"/>
<path d="M5830 6270 c8 -5 15 -14 15 -20 0 -5 3 -10 8 -10 4 0 10 0 14 0 3 0
-2 9 -12 20 -10 11 -23 20 -29 20 -6 0 -4 -5 4 -10z"/>
<path d="M1482 6257 c-41 -15 -94 -57 -123 -99 -23 -32 -20 -31 38 8 49 33 97
38 175 18 77 -20 95 -13 84 31 -12 47 -100 68 -174 42z"/>
<path d="M6181 6234 c0 -11 3 -14 6 -6 3 7 2 16 -1 19 -3 4 -6 -2 -5 -13z"/>
<path d="M5296 6213 c-6 -14 -5 -15 5 -6 7 7 10 15 7 18 -3 3 -9 -2 -12 -12z"/>
<path d="M2425 6170 c-3 -5 -2 -10 4 -10 5 0 13 5 16 10 3 6 2 10 -4 10 -5 0
-13 -4 -16 -10z"/>
<path d="M2311 6096 c-8 -10 -9 -16 -1 -21 5 -3 10 -5 11 -3 4 18 7 38 4 38
-1 0 -8 -6 -14 -14z"/>
<path d="M6371 6033 c-115 -60 -171 -278 -108 -417 56 -122 163 -127 241 -13
135 198 36 519 -133 430z m112 -33 c72 -56 36 -210 -48 -210 -39 0 -85 50 -85
93 0 54 20 97 54 118 39 24 47 24 79 -1z"/>
<path d="M5231 6024 c0 -11 3 -14 6 -6 3 7 2 16 -1 19 -3 4 -6 -2 -5 -13z"/>
<path d="M5650 6033 c-26 -10 -61 -47 -83 -88 -19 -34 -22 -56 -22 -150 0
-101 2 -114 28 -164 51 -95 112 -130 174 -97 108 55 129 311 36 434 -39 51
-96 79 -133 65z m74 -34 c57 -26 74 -127 30 -178 -55 -66 -134 -18 -134 81 0
41 5 54 29 79 33 32 39 34 75 18z"/>
<path d="M2246 6022 c-3 -5 1 -9 9 -9 8 0 12 4 9 9 -3 4 -7 8 -9 8 -2 0 -6 -4
-9 -8z"/>
<path d="M1550 5986 c0 -2 7 -7 16 -10 8 -3 12 -2 9 4 -6 10 -25 14 -25 6z"/>
<path d="M5985 5931 c-3 -5 -1 -12 5 -16 5 -3 10 1 10 9 0 18 -6 21 -15 7z"/>
<path d="M1420 5900 c-8 -5 -12 -12 -9 -15 4 -3 12 1 19 10 14 17 11 19 -10 5z"/>
<path d="M2183 5885 c0 -8 4 -12 9 -9 5 3 6 10 3 15 -9 13 -12 11 -12 -6z"/>
<path d="M2895 5890 c-3 -5 -1 -10 4 -10 6 0 11 5 11 10 0 6 -2 10 -4 10 -3 0
-8 -4 -11 -10z"/>
<path d="M1905 5840 c10 -11 20 -20 23 -20 3 0 -3 9 -13 20 -10 11 -20 20 -23
20 -3 0 3 -9 13 -20z"/>
<path d="M1946 5807 c3 -10 9 -15 12 -12 3 3 0 11 -7 18 -10 9 -11 8 -5 -6z"/>
<path d="M2925 5800 c-3 -5 -1 -10 4 -10 6 0 11 5 11 10 0 6 -2 10 -4 10 -3 0
-8 -4 -11 -10z"/>
<path d="M2455 5781 c-116 -48 -158 -275 -78 -423 69 -128 188 -129 252 -3 37
70 42 215 12 295 -25 64 -45 91 -92 119 -36 22 -61 25 -94 12z m88 -32 c74
-34 75 -181 1 -209 -62 -24 -114 28 -114 111 0 38 6 53 29 78 31 33 47 37 84
20z"/>
<path d="M1335 5739 c-4 -6 -5 -12 -2 -15 2 -3 7 2 10 11 7 17 1 20 -8 4z"/>
<path d="M5104 5704 c-18 -14 -18 -15 4 -4 12 6 22 13 22 15 0 8 -5 6 -26 -11z"/>
<path d="M1712 5628 c-96 -47 -94 -284 3 -411 58 -76 119 -96 181 -58 86 53
84 266 -4 394 -53 76 -120 104 -180 75z m97 -23 c70 -36 81 -167 17 -197 -66
-29 -141 63 -117 143 10 35 42 69 64 69 4 0 21 -7 36 -15z"/>
<path d="M6820 5630 c0 -5 5 -10 11 -10 5 0 7 5 4 10 -3 6 -8 10 -11 10 -2 0
-4 -4 -4 -10z"/>
<path d="M2961 5604 c0 -11 3 -14 6 -6 3 7 2 16 -1 19 -3 4 -6 -2 -5 -13z"/>
<path d="M5956 5533 c-6 -14 -5 -15 5 -6 7 7 10 15 7 18 -3 3 -9 -2 -12 -12z"/>
<path d="M3138 5463 c7 -3 16 -2 19 1 4 3 -2 6 -13 5 -11 0 -14 -3 -6 -6z"/>
<path d="M5915 5451 c-3 -5 -2 -12 3 -15 5 -3 9 1 9 9 0 17 -3 19 -12 6z"/>
<path d="M4971 5414 c0 -11 3 -14 6 -6 3 7 2 16 -1 19 -3 4 -6 -2 -5 -13z"/>
<path d="M2931 5404 c0 -11 3 -14 6 -6 3 7 2 16 -1 19 -3 4 -6 -2 -5 -13z"/>
<path d="M3280 5416 c0 -2 8 -10 18 -17 15 -13 16 -12 3 4 -13 16 -21 21 -21
13z"/>
<path d="M5410 5376 c0 -2 8 -10 18 -17 15 -13 16 -12 3 4 -13 16 -21 21 -21
13z"/>
<path d="M1331 5354 c0 -11 3 -14 6 -6 3 7 2 16 -1 19 -3 4 -6 -2 -5 -13z"/>
<path d="M6645 5340 c-4 -6 -11 -7 -17 -4 -7 4 -8 2 -4 -5 6 -9 11 -9 22 0 14
11 18 19 10 19 -3 0 -8 -5 -11 -10z"/>
<path d="M5800 5309 c0 -5 5 -7 10 -4 6 3 10 8 10 11 0 2 -4 4 -10 4 -5 0 -10
-5 -10 -11z"/>
<path d="M1375 5238 c4 -13 11 -27 16 -33 5 -5 4 5 -2 23 -12 36 -24 44 -14
10z"/>
<path d="M6270 5256 c0 -2 7 -7 16 -10 8 -3 12 -2 9 4 -6 10 -25 14 -25 6z"/>
<path d="M2256 5147 c3 -10 9 -15 12 -12 3 3 0 11 -7 18 -10 9 -11 8 -5 -6z"/>
<path d="M7006 5145 c-9 -26 -7 -32 5 -12 6 10 9 21 6 23 -2 3 -7 -2 -11 -11z"/>
<path d="M5085 5141 c-3 -5 -2 -12 3 -15 5 -3 9 1 9 9 0 17 -3 19 -12 6z"/>
<path d="M5120 5121 c0 -6 4 -13 10 -16 6 -3 7 1 4 9 -7 18 -14 21 -14 7z"/>
<path d="M2739 5043 c-13 -16 -12 -17 4 -4 16 13 21 21 13 21 -2 0 -10 -8 -17
-17z"/>
<path d="M6946 5048 c3 -5 10 -6 15 -3 13 9 11 12 -6 12 -8 0 -12 -4 -9 -9z"/>
<path d="M5467 5029 c7 -7 15 -10 18 -7 3 3 -2 9 -12 12 -14 6 -15 5 -6 -5z"/>
<path d="M6919 5023 c-13 -16 -12 -17 4 -4 16 13 21 21 13 21 -2 0 -10 -8 -17
-17z"/>
<path d="M1085 4970 c-4 -6 -11 -7 -17 -4 -7 4 -8 2 -4 -5 6 -9 11 -9 22 0 14
11 18 19 10 19 -3 0 -8 -5 -11 -10z"/>
<path d="M1040 4931 c0 -6 4 -13 10 -16 6 -3 7 1 4 9 -7 18 -14 21 -14 7z"/>
<path d="M3050 4910 c-9 -6 -10 -10 -3 -10 6 0 15 5 18 10 8 12 4 12 -15 0z"/>
<path d="M2990 4870 c-9 -6 -10 -10 -3 -10 6 0 15 5 18 10 8 12 4 12 -15 0z"/>
<path d="M6218 4773 c7 -3 16 -2 19 1 4 3 -2 6 -13 5 -11 0 -14 -3 -6 -6z"/>
<path d="M428 4753 c7 -3 16 -2 19 1 4 3 -2 6 -13 5 -11 0 -14 -3 -6 -6z"/>
<path d="M6538 4753 c7 -3 16 -2 19 1 4 3 -2 6 -13 5 -11 0 -14 -3 -6 -6z"/>
<path d="M6413 4743 c9 -2 23 -2 30 0 6 3 -1 5 -18 5 -16 0 -22 -2 -12 -5z"/>
<path d="M495 4731 c-3 -5 -2 -12 3 -15 5 -3 9 1 9 9 0 17 -3 19 -12 6z"/>
<path d="M3151 4634 c0 -11 3 -14 6 -6 3 7 2 16 -1 19 -3 4 -6 -2 -5 -13z"/>
<path d="M2348 4623 c7 -3 16 -2 19 1 4 3 -2 6 -13 5 -11 0 -14 -3 -6 -6z"/>
<path d="M580 4609 c0 -5 5 -7 10 -4 6 3 10 8 10 11 0 2 -4 4 -10 4 -5 0 -10
-5 -10 -11z"/>
<path d="M6821 4584 c0 -11 3 -14 6 -6 3 7 2 16 -1 19 -3 4 -6 -2 -5 -13z"/>
<path d="M1162 4581 c-11 -6 -10 -10 4 -15 9 -3 19 -4 22 -1 3 3 0 5 -7 5 -7
0 -9 5 -6 10 7 12 4 12 -13 1z"/>
<path d="M352 4550 c0 -14 2 -19 5 -12 2 6 2 18 0 25 -3 6 -5 1 -5 -13z"/>
<path d="M1357 4559 c7 -7 15 -10 18 -7 3 3 -2 9 -12 12 -14 6 -15 5 -6 -5z"/>
<path d="M1248 4543 c7 -3 16 -2 19 1 4 3 -2 6 -13 5 -11 0 -14 -3 -6 -6z"/>
<path d="M3160 4503 c0 -4 5 -15 10 -23 8 -13 10 -13 10 2 0 9 -4 20 -10 23
-5 3 -10 3 -10 -2z"/>
<path d="M3182 4350 c0 -14 2 -19 5 -12 2 6 2 18 0 25 -3 6 -5 1 -5 -13z"/>
<path d="M315 4321 c-3 -5 -2 -12 3 -15 5 -3 9 1 9 9 0 17 -3 19 -12 6z"/>
<path d="M6408 4313 c7 -3 16 -2 19 1 4 3 -2 6 -13 5 -11 0 -14 -3 -6 -6z"/>
<path d="M350 4299 c0 -5 5 -7 10 -4 6 3 10 8 10 11 0 2 -4 4 -10 4 -5 0 -10
-5 -10 -11z"/>
<path d="M1628 4303 c6 -2 18 -2 25 0 6 3 1 5 -13 5 -14 0 -19 -2 -12 -5z"/>
<path d="M6218 4303 c7 -3 16 -2 19 1 4 3 -2 6 -13 5 -11 0 -14 -3 -6 -6z"/>
<path d="M248 4283 c7 -3 16 -2 19 1 4 3 -2 6 -13 5 -11 0 -14 -3 -6 -6z"/>
<path d="M196 4267 c-16 -12 -16 -13 2 -13 10 0 19 6 19 13 0 7 -1 13 -2 13
-1 0 -9 -6 -19 -13z"/>
<path d="M163 4235 c0 -8 4 -12 9 -9 5 3 6 10 3 15 -9 13 -12 11 -12 -6z"/>
<path d="M6776 4174 c-4 -9 -4 -19 -1 -22 2 -3 7 3 11 12 4 9 4 19 1 22 -2 3
-7 -3 -11 -12z"/>
<path d="M691 4148 c5 -10 11 -18 12 -18 2 0 3 8 3 18 0 10 -6 19 -13 19 -8 0
-9 -6 -2 -19z"/>
<path d="M6765 4090 c3 -5 8 -10 11 -10 2 0 4 5 4 10 0 6 -5 10 -11 10 -5 0
-7 -4 -4 -10z"/>
<path d="M720 4059 c0 -5 5 -7 10 -4 6 3 10 8 10 11 0 2 -4 4 -10 4 -5 0 -10
-5 -10 -11z"/>
<path d="M438 4043 c7 -3 16 -2 19 1 4 3 -2 6 -13 5 -11 0 -14 -3 -6 -6z"/>
<path d="M5031 4014 c0 -11 3 -14 6 -6 3 7 2 16 -1 19 -3 4 -6 -2 -5 -13z"/>
<path d="M35 4009 c-4 -6 -5 -12 -2 -15 2 -3 7 2 10 11 7 17 1 20 -8 4z"/>
<path d="M21 3964 c0 -11 3 -14 6 -6 3 7 2 16 -1 19 -3 4 -6 -2 -5 -13z"/>
<path d="M4989 3953 c-13 -16 -12 -17 4 -4 9 7 17 15 17 17 0 8 -8 3 -21 -13z"/>
<path d="M4966 3915 c-3 -9 -10 -14 -15 -11 -5 3 -14 -1 -20 -8 -8 -10 -9 -16
-1 -21 5 -3 10 1 10 10 0 9 4 14 9 11 10 -6 37 22 29 30 -3 3 -8 -2 -12 -11z"/>
<path d="M2010 3910 c-9 -6 -10 -10 -3 -10 6 0 15 5 18 10 8 12 4 12 -15 0z"/>
<path d="M1898 3903 c6 -2 18 -2 25 0 6 3 1 5 -13 5 -14 0 -19 -2 -12 -5z"/>
<path d="M1708 3893 c7 -3 16 -2 19 1 4 3 -2 6 -13 5 -11 0 -14 -3 -6 -6z"/>
<path d="M751 3874 c0 -11 3 -14 6 -6 3 7 2 16 -1 19 -3 4 -6 -2 -5 -13z"/>
<path d="M21 3864 c0 -11 3 -14 6 -6 3 7 2 16 -1 19 -3 4 -6 -2 -5 -13z"/>
<path d="M1556 3853 c-6 -14 -5 -15 5 -6 7 7 10 15 7 18 -3 3 -9 -2 -12 -12z"/>
<path d="M4912 3865 c4 -4 3 -14 -4 -22 -6 -7 -9 -15 -7 -18 3 -2 10 4 17 15
9 15 9 21 -1 26 -6 4 -9 4 -5 -1z"/>
<path d="M772 3830 c0 -14 2 -19 5 -12 2 6 2 18 0 25 -3 6 -5 1 -5 -13z"/>
<path d="M3262 3826 c7 -8 15 -12 17 -11 5 6 -10 25 -20 25 -5 0 -4 -6 3 -14z"/>
<path d="M4795 3820 c-3 -5 -2 -10 4 -10 5 0 13 5 16 10 3 6 2 10 -4 10 -5 0
-13 -4 -16 -10z"/>
<path d="M4835 3821 c-3 -6 4 -9 15 -8 11 1 20 5 20 9 0 11 -28 10 -35 -1z"/>
<path d="M4709 3793 c-13 -16 -12 -17 4 -4 16 13 21 21 13 21 -2 0 -10 -8 -17
-17z"/>
<path d="M3242 3730 c0 -14 2 -19 5 -12 2 6 2 18 0 25 -3 6 -5 1 -5 -13z"/>
<path d="M4866 3728 c3 -5 10 -6 15 -3 13 9 11 12 -6 12 -8 0 -12 -4 -9 -9z"/>
<path d="M3465 3720 c-3 -5 1 -10 10 -10 9 0 13 5 10 10 -3 6 -8 10 -10 10 -2
0 -7 -4 -10 -10z"/>
<path d="M5010 3705 c0 -5 5 -17 10 -25 5 -8 10 -10 10 -5 0 6 -5 17 -10 25
-5 8 -10 11 -10 5z"/>
<path d="M3525 3679 c-4 -6 -5 -12 -2 -15 2 -3 7 2 10 11 7 17 1 20 -8 4z"/>
<path d="M31 3654 c0 -11 3 -14 6 -6 3 7 2 16 -1 19 -3 4 -6 -2 -5 -13z"/>
<path d="M4565 3599 c-189 -102 -446 -198 -595 -220 -30 -4 -80 -13 -110 -19
-30 -6 -132 -14 -227 -18 l-172 -7 42 -46 c23 -26 65 -73 93 -105 29 -33 73
-81 99 -108 l47 -48 66 7 c119 12 175 10 302 -13 69 -12 166 -26 215 -32 141
-16 421 -12 541 6 l104 17 1 56 c1 31 4 102 8 159 7 116 15 109 -92 88 -92
-19 -197 -30 -197 -21 0 3 20 15 45 26 44 20 54 32 35 44 -5 3 -7 12 -4 19 3
8 1 17 -5 21 -7 4 -8 -1 -4 -12 6 -15 4 -16 -8 -6 -27 22 -71 125 -83 194
l-11 67 -90 -49z"/>
<path d="M595 3581 c-3 -5 -2 -12 3 -15 5 -3 9 1 9 9 0 17 -3 19 -12 6z"/>
<path d="M690 3555 c-11 -13 -10 -14 4 -9 9 3 16 10 16 15 0 13 -6 11 -20 -6z"/>
<path d="M3305 3549 c-4 -6 -5 -12 -2 -15 2 -3 7 2 10 11 7 17 1 20 -8 4z"/>
<path d="M90 3541 c0 -6 4 -13 10 -16 6 -3 7 1 4 9 -7 18 -14 21 -14 7z"/>
<path d="M3666 3542 c-3 -5 1 -9 9 -9 8 0 12 4 9 9 -3 4 -7 8 -9 8 -2 0 -6 -4
-9 -8z"/>
<path d="M488 3523 c6 -2 18 -2 25 0 6 3 1 5 -13 5 -14 0 -19 -2 -12 -5z"/>
<path d="M6726 3413 c-3 -60 -9 -135 -12 -168 l-6 -60 84 -42 c45 -24 102 -61
126 -83 24 -22 51 -40 60 -40 27 0 116 -65 155 -112 43 -53 63 -93 72 -141 4
-20 10 -37 14 -37 13 0 99 95 115 128 26 51 31 122 12 178 -49 147 -274 344
-507 445 -50 21 -94 39 -98 39 -4 0 -11 -48 -15 -107z"/>
<path d="M106 3501 c-3 -5 2 -15 12 -22 15 -12 16 -12 5 2 -7 9 -10 19 -6 22
3 4 4 7 0 7 -3 0 -8 -4 -11 -9z"/>
<path d="M4947 3489 c7 -7 15 -10 18 -7 3 3 -2 9 -12 12 -14 6 -15 5 -6 -5z"/>
<path d="M1988 3473 c6 -2 18 -2 25 0 6 3 1 5 -13 5 -14 0 -19 -2 -12 -5z"/>
<path d="M157 3451 c6 -7 9 -20 6 -27 -3 -8 -3 -14 0 -14 14 0 14 30 -1 41
-14 11 -15 11 -5 0z"/>
<path d="M1536 3437 c3 -10 9 -15 12 -12 3 3 0 11 -7 18 -10 9 -11 8 -5 -6z"/>
<path d="M3860 3445 c0 -7 30 -13 34 -7 3 4 -4 9 -15 9 -10 1 -19 0 -19 -2z"/>
<path d="M3405 3400 c10 -11 20 -20 23 -20 3 0 -3 9 -13 20 -10 11 -20 20 -23
20 -3 0 3 -9 13 -20z"/>
<path d="M712 3385 c0 -16 2 -22 5 -12 2 9 2 23 0 30 -3 6 -5 -1 -5 -18z"/>
<path d="M520 3370 c-9 -6 -10 -10 -3 -10 6 0 15 5 18 10 8 12 4 12 -15 0z"/>
<path d="M328 3363 c7 -3 16 -2 19 1 4 3 -2 6 -13 5 -11 0 -14 -3 -6 -6z"/>
<path d="M5001 3334 c0 -11 3 -14 6 -6 3 7 2 16 -1 19 -3 4 -6 -2 -5 -13z"/>
<path d="M5317 3328 c-54 -15 -97 -58 -97 -100 0 -18 -5 -87 -10 -153 -15
-192 -42 -1088 -36 -1228 l5 -128 40 -36 c23 -19 41 -40 41 -45 0 -5 13 -20
28 -33 16 -13 46 -59 68 -101 57 -113 54 -196 -12 -314 -7 -14 -19 -24 -25
-22 -6 1 -9 -3 -6 -10 2 -7 -7 -28 -21 -47 l-25 -34 22 -71 c33 -104 113 -262
168 -331 105 -129 235 -204 394 -225 238 -32 437 67 561 279 79 136 144 397
168 676 15 176 3 1677 -14 1687 -43 24 -185 50 -380 68 -264 25 -328 37 -444
85 -187 78 -243 95 -317 94 -38 -1 -87 -6 -108 -11z m231 -104 c-6 -5 -68 62
-68 73 0 5 16 -9 36 -30 20 -21 34 -40 32 -43z m66 -55 c20 -23 35 -43 33 -45
-2 -2 -22 16 -45 41 -22 25 -38 45 -34 45 5 0 25 -18 46 -41z m220 -81 c-36
-34 -63 -67 -60 -73 2 -6 -4 -11 -14 -11 -10 0 -17 3 -15 7 2 3 -14 23 -35 44
-22 22 -40 43 -40 47 0 4 19 -10 41 -32 23 -22 44 -40 48 -40 4 0 33 27 66 60
33 33 63 60 66 60 4 0 -22 -28 -57 -62z m481 -130 c104 -9 124 -13 100 -20
-30 -9 -227 -4 -297 8 -21 4 -35 10 -32 15 7 12 75 11 229 -3z m-248 -4 c-3
-3 -12 -4 -19 -1 -8 3 -5 6 6 6 11 1 17 -2 13 -5z m222 -349 c149 -10 151 -23
4 -23 -73 0 -133 3 -133 8 0 4 -9 6 -20 3 -11 -3 -28 -2 -37 3 -14 6 -11 9 17
14 19 4 44 6 55 4 11 -2 62 -6 114 -9z m-209 -5 c0 -12 -8 -12 -35 0 -18 8
-17 9 8 9 15 1 27 -3 27 -9z m310 -319 c25 -7 -1 -9 -95 -10 -160 -1 -278 9
-250 21 24 10 295 1 345 -11z m-30 -328 l45 -7 -40 -7 c-34 -7 -239 -2 -285 7
-8 1 -26 3 -40 4 -23 1 -24 2 -5 11 20 9 244 4 325 -8z m-11 -449 c75 -8 80
-19 9 -20 -29 -1 -57 -3 -63 -5 -5 -1 -46 1 -90 5 -125 12 -158 16 -163 21 -8
7 235 6 307 -1z m-552 -514 l28 25 -25 -28 -24 -28 159 -162 160 -162 -162
160 c-94 92 -166 155 -170 150 -5 -6 -19 -22 -31 -36 -21 -24 -29 -42 -31 -73
-1 -4 -8 -6 -15 -3 -15 6 -33 -29 -22 -40 3 -4 6 -1 6 5 0 7 9 12 20 12 21 0
57 -61 46 -79 -4 -5 3 -13 15 -16 17 -6 20 -13 17 -40 -3 -30 -1 -34 25 -39
17 -4 26 -10 21 -17 -4 -7 -9 -7 -13 -2 -3 6 -19 13 -34 17 -15 4 -25 11 -22
16 3 5 0 7 -8 5 -17 -7 -100 73 -93 91 3 7 0 11 -7 8 -13 -4 -54 54 -49 70 2
4 -5 14 -14 21 -16 11 -16 14 2 37 19 25 19 25 29 4 6 -12 19 -20 28 -18 9 2
17 -3 17 -9 0 -13 8 -9 9 4 0 5 17 21 38 36 78 57 81 47 -63 194 l-129 132
132 -130 132 -129 28 24z m563 60 c46 -6 49 -8 20 -10 -76 -5 -314 2 -334 10
-26 11 237 11 314 0z m-780 -140 c0 -11 -4 -20 -10 -20 -5 0 -10 9 -10 20 0
11 5 20 10 20 6 0 10 -9 10 -20z"/>
<path d="M676 3285 c-11 -8 -15 -15 -9 -15 6 0 16 7 23 15 16 19 11 19 -14 0z"/>
<path d="M190 3286 c0 -2 8 -10 18 -17 15 -13 16 -12 3 4 -13 16 -21 21 -21
13z"/>
<path d="M635 3260 c3 -5 8 -10 11 -10 2 0 4 5 4 10 0 6 -5 10 -11 10 -5 0 -7
-4 -4 -10z"/>
<path d="M565 3208 c-40 -15 -70 -18 -147 -15 l-97 4 29 -57 c41 -82 159 -255
219 -322 115 -127 240 -177 415 -164 50 4 102 7 116 9 28 2 54 42 159 242 35
66 68 126 73 133 21 25 2 20 -52 -14 -154 -97 -358 -98 -496 -3 -55 38 -120
113 -141 166 -10 24 -20 42 -23 42 -3 -1 -27 -10 -55 -21z"/>
<path d="M1395 3140 c3 -5 8 -10 11 -10 2 0 4 5 4 10 0 6 -5 10 -11 10 -5 0
-7 -4 -4 -10z"/>
<path d="M4992 3110 c0 -14 2 -19 5 -12 2 6 2 18 0 25 -3 6 -5 1 -5 -13z"/>
<path d="M1375 3089 c-4 -6 -5 -12 -2 -15 2 -3 7 2 10 11 7 17 1 20 -8 4z"/>
<path d="M6894 3015 c-10 -8 -14 -15 -8 -15 6 0 17 7 24 15 16 19 9 19 -16 0z"/>
<path d="M4976 2994 c-4 -9 -4 -19 -1 -22 2 -3 7 3 11 12 4 9 4 19 1 22 -2 3
-7 -3 -11 -12z"/>
<path d="M6691 2984 c0 -11 3 -14 6 -6 3 7 2 16 -1 19 -3 4 -6 -2 -5 -13z"/>
<path d="M1540 2986 c0 -2 7 -7 16 -10 8 -3 12 -2 9 4 -6 10 -25 14 -25 6z"/>
<path d="M1600 2969 c0 -5 5 -7 10 -4 6 3 10 8 10 11 0 2 -4 4 -10 4 -5 0 -10
-5 -10 -11z"/>
<path d="M3795 2960 c10 -11 20 -20 23 -20 3 0 -3 9 -13 20 -10 11 -20 20 -23
20 -3 0 3 -9 13 -20z"/>
<path d="M6794 2939 c-3 -6 -2 -15 3 -20 5 -5 9 -1 9 11 0 23 -2 24 -12 9z"/>
<path d="M3448 2933 c-9 -2 -52 -24 -94 -48 -161 -92 -318 -134 -535 -142
-166 -6 -298 5 -569 47 -343 54 -557 67 -650 38 -44 -13 -46 -16 -122 -153
l-78 -140 28 -6 c31 -6 42 -2 24 10 -10 6 3 38 54 130 64 115 70 122 109 133
95 26 317 9 740 -58 220 -36 551 -41 675 -11 155 37 244 72 380 147 59 32 80
36 97 19 16 -16 28 8 13 26 -12 15 -37 17 -72 8z"/>
<path d="M6765 2930 c-3 -5 -1 -10 4 -10 6 0 11 5 11 10 0 6 -2 10 -4 10 -3 0
-8 -4 -11 -10z"/>
<path d="M3860 2895 c19 -19 36 -35 39 -35 3 0 -10 16 -29 35 -19 19 -36 35
-39 35 -3 0 10 -16 29 -35z"/>
<path d="M3524 2889 c-3 -6 -2 -21 4 -32 6 -12 15 -35 21 -52 10 -27 11 -27 8
-4 -2 16 1 26 9 26 7 0 11 -4 8 -8 -3 -5 21 -34 53 -65 32 -31 57 -64 56 -73
-2 -10 0 -11 3 -3 5 10 9 10 20 1 12 -10 12 -14 2 -22 -10 -6 -8 -7 4 -3 12 3
23 -4 35 -24 9 -16 19 -27 22 -26 3 2 13 -3 21 -12 13 -14 12 -15 -3 -9 -9 3
-19 2 -22 -3 -3 -5 8 -7 25 -5 36 5 58 -15 55 -49 -2 -15 1 -24 5 -21 5 3 7
13 4 23 -4 11 4 7 20 -10 14 -16 30 -28 36 -28 10 0 14 -13 11 -40 -1 -11 0
-12 7 -2 6 9 30 -8 85 -60 42 -40 77 -72 77 -70 0 1 6 -3 14 -10 8 -7 12 -16
10 -19 -2 -3 8 -11 21 -17 14 -7 25 -19 25 -27 0 -9 4 -14 8 -11 10 6 64 -39
57 -48 -3 -3 -2 -4 2 -1 11 8 194 -160 185 -171 -4 -4 -2 -4 5 0 6 3 16 -1 21
-10 5 -8 20 -21 33 -28 13 -6 24 -18 24 -26 0 -9 8 -14 18 -12 9 2 17 -2 17
-9 0 -6 7 -8 15 -5 10 4 36 -14 75 -50 55 -53 65 -77 37 -87 -7 -2 -1 -2 13 0
29 4 80 -40 61 -52 -6 -3 -11 -14 -10 -23 0 -12 3 -11 9 6 5 12 14 22 21 22 6
0 9 -7 5 -15 -3 -8 -2 -14 2 -13 18 5 52 -15 67 -39 16 -24 16 -26 1 -20 -11
4 -15 3 -11 -4 4 -6 13 -8 20 -5 7 2 21 -2 32 -9 10 -8 14 -15 8 -15 -6 0 -5
-3 1 -8 37 -24 80 -133 76 -192 -2 -32 -34 -123 -47 -132 -5 -4 -6 -8 -1 -8 5
0 1 -9 -9 -20 -10 -11 -24 -20 -30 -20 -12 0 -30 -28 -27 -42 3 -13 -78 -69
-89 -62 -8 4 -9 3 -5 -4 4 -7 2 -12 -4 -12 -6 0 -8 -4 -5 -10 3 -5 1 -10 -5
-10 -6 0 -23 -12 -38 -28 -46 -47 -145 -112 -162 -107 -23 7 -58 -19 -40 -30
8 -5 11 -4 7 2 -7 11 22 28 31 18 8 -7 -31 -34 -40 -28 -5 2 -21 -5 -37 -16
-16 -12 -38 -21 -49 -21 -12 0 -23 -4 -26 -9 -4 -5 4 -7 16 -5 13 3 3 -6 -22
-19 -24 -14 -50 -22 -57 -20 -7 3 -13 -1 -13 -8 0 -17 -115 -73 -130 -64 -6 3
-7 0 -4 -10 5 -11 2 -14 -10 -9 -9 3 -16 2 -16 -3 0 -6 -18 -17 -40 -26 -22
-8 -40 -11 -40 -6 0 5 -4 9 -10 9 -5 0 -10 -9 -10 -19 0 -13 -9 -21 -30 -26
-24 -5 -29 -10 -20 -20 9 -11 7 -12 -9 -8 -11 3 -68 -13 -128 -35 -251 -94
-564 -183 -639 -183 -11 0 -36 -13 -55 -29 l-34 -30 40 6 c91 15 351 86 520
142 369 123 690 277 928 446 206 146 318 260 357 364 54 144 1 269 -178 424
-539 463 -813 711 -1092 985 -91 90 -166 163 -167 163 -1 0 -5 -5 -9 -11z"/>
<path d="M7110 2896 c0 -2 8 -10 18 -17 15 -13 16 -12 3 4 -13 16 -21 21 -21
13z"/>
<path d="M6857 2859 c7 -7 15 -10 18 -7 3 3 -2 9 -12 12 -14 6 -15 5 -6 -5z"/>
<path d="M3925 2830 c10 -11 20 -20 23 -20 3 0 -3 9 -13 20 -10 11 -20 20 -23
20 -3 0 3 -9 13 -20z"/>
<path d="M7160 2831 c0 -11 4 -22 9 -25 4 -3 6 6 3 19 -5 30 -12 33 -12 6z"/>
<path d="M3598 2733 c7 -3 16 -2 19 1 4 3 -2 6 -13 5 -11 0 -14 -3 -6 -6z"/>
<path d="M3550 2713 c0 -10 4 -14 8 -8 4 6 11 13 16 18 5 4 2 7 -7 7 -10 0
-17 -8 -17 -17z"/>
<path d="M6692 2690 c0 -14 2 -19 5 -12 2 6 2 18 0 25 -3 6 -5 1 -5 -13z"/>
<path d="M4076 2687 c3 -10 9 -15 12 -12 3 3 0 11 -7 18 -10 9 -11 8 -5 -6z"/>
<path d="M3502 2660 c-35 -29 -175 -103 -287 -151 -55 -23 -113 -54 -128 -68
-22 -20 -27 -22 -21 -7 6 16 4 17 -12 8 -28 -14 -284 -96 -394 -126 -147 -40
-262 -56 -395 -56 -211 0 -379 41 -590 145 -60 30 -111 52 -114 50 -6 -7 40
-48 83 -74 20 -13 36 -26 36 -31 0 -5 18 -11 40 -15 22 -4 40 -11 40 -16 0 -6
21 -19 48 -30 26 -11 55 -24 64 -29 10 -6 29 -10 43 -10 14 0 25 -4 25 -10 0
-5 9 -10 20 -10 10 0 45 -7 77 -16 74 -19 294 -28 398 -16 44 5 81 9 82 8 1
-1 -28 -32 -64 -69 -98 -100 -63 -81 51 28 88 85 102 95 135 94 20 0 45 -4 56
-8 12 -5 33 -3 54 6 19 7 41 11 47 9 7 -3 11 0 8 7 -3 9 22 21 73 36 103 31
124 35 88 17 -31 -15 -24 -20 10 -7 11 5 20 14 20 22 0 8 10 14 23 13 12 0 22
3 22 8 0 5 4 7 9 4 14 -9 41 5 41 21 0 8 4 11 10 8 5 -3 23 4 39 16 19 14 36
19 47 15 10 -4 15 -4 11 0 -4 4 11 15 33 25 23 10 48 25 56 34 9 8 22 15 30
15 8 0 14 4 14 9 0 5 13 12 28 16 24 5 45 19 101 67 11 9 16 9 19 0 4 -14 32
-16 32 -2 0 5 -7 13 -16 18 -13 7 -14 11 -4 17 7 4 16 2 22 -6 8 -12 9 -11 5
1 -2 8 5 25 16 38 26 28 3 30 -31 2z"/>
<path d="M4106 2656 c3 -8 13 -17 22 -21 13 -5 13 -2 -3 15 -21 24 -26 25 -19
6z"/>
<path d="M4160 2606 c0 -2 8 -10 18 -17 15 -13 16 -12 3 4 -13 16 -21 21 -21
13z"/>
<path d="M6697 2581 c-4 -17 -3 -21 5 -13 5 5 8 16 6 23 -3 8 -7 3 -11 -10z"/>
<path d="M1075 2570 c-3 -6 1 -7 9 -4 18 7 21 14 7 14 -6 0 -13 -4 -16 -10z"/>
<path d="M1340 2540 c8 -5 20 -10 25 -10 6 0 3 5 -5 10 -8 5 -19 10 -25 10 -5
0 -3 -5 5 -10z"/>
<path d="M4235 2530 c-3 -5 -5 -10 -3 -11 33 -8 38 -7 27 7 -14 17 -16 17 -24
4z"/>
<path d="M7165 2530 c-4 -6 -10 -8 -15 -5 -5 3 -11 1 -14 -4 -8 -13 22 -7 36
7 7 7 9 12 6 12 -4 0 -10 -5 -13 -10z"/>
<path d="M1335 2422 c-27 -48 -77 -136 -112 -197 -43 -74 -60 -112 -53 -119
16 -16 43 6 56 43 5 17 13 29 17 25 3 -3 9 5 13 20 3 14 11 26 16 26 5 0 8 5
6 12 -4 11 25 64 54 98 7 8 12 16 11 17 -8 8 -2 23 7 18 6 -4 10 5 10 19 0 16
6 26 15 26 8 0 14 3 13 8 -5 15 25 71 36 66 6 -3 2 2 -8 10 -11 9 -22 16 -25
16 -3 0 -28 -39 -56 -88z"/>
<path d="M4264 2491 c7 -11 46 -35 46 -28 0 3 -12 12 -26 22 -15 9 -23 12 -20
6z"/>
<path d="M7009 2483 c-13 -16 -12 -17 4 -4 16 13 21 21 13 21 -2 0 -10 -8 -17
-17z"/>
<path d="M1441 2466 c11 -9 100 -15 94 -6 -3 6 -27 10 -52 10 -26 0 -44 -2
-42 -4z"/>
<path d="M4339 2447 c6 -8 7 -18 3 -22 -4 -5 -1 -5 6 -1 10 6 10 11 1 22 -6 8
-14 14 -16 14 -3 0 0 -6 6 -13z"/>
<path d="M4004 2360 c0 -13 4 -16 10 -10 7 7 7 13 0 20 -6 6 -10 3 -10 -10z"/>
<path d="M3171 2350 c0 -14 4 -32 9 -40 9 -13 10 -13 9 0 -1 8 -5 26 -9 40
l-8 25 -1 -25z"/>
<path d="M946 2345 c-9 -26 -7 -32 5 -12 6 10 9 21 6 23 -2 3 -7 -2 -11 -11z"/>
<path d="M2894 2295 c-18 -13 -18 -14 4 -8 12 3 25 9 28 14 8 14 -10 11 -32
-6z"/>
<path d="M2828 2273 c7 -3 16 -2 19 1 4 3 -2 6 -13 5 -11 0 -14 -3 -6 -6z"/>
<path d="M3191 2269 c-1 -9 7 -25 17 -36 9 -10 14 -14 10 -8 -4 6 -12 22 -17
36 -6 15 -10 18 -10 8z"/>
<path d="M6855 2260 c3 -5 8 -10 11 -10 2 0 4 5 4 10 0 6 -5 10 -11 10 -5 0
-7 -4 -4 -10z"/>
<path d="M4546 2239 c21 -23 23 -23 20 -2 -2 9 -11 17 -20 19 -17 2 -17 2 0
-17z"/>
<path d="M2590 2195 c-19 -19 -29 -35 -22 -35 6 0 17 7 24 15 32 39 39 44 53
39 8 -4 15 -1 15 5 0 23 -37 10 -70 -24z"/>
<path d="M3230 2184 c1 -16 29 -60 29 -44 0 8 -6 24 -14 34 -8 11 -15 16 -15
10z"/>
<path d="M4626 2181 c-3 -5 1 -14 8 -20 10 -9 16 -9 21 -1 4 6 1 9 -7 8 -7 -2
-12 3 -10 10 2 14 -4 16 -12 3z"/>
<path d="M6740 2185 c0 -5 5 -17 10 -25 5 -8 10 -10 10 -5 0 6 -5 17 -10 25
-5 8 -10 11 -10 5z"/>
<path d="M2405 2170 c-3 -6 1 -7 9 -4 18 7 21 14 7 14 -6 0 -13 -4 -16 -10z"/>
<path d="M4950 2156 c0 -2 7 -7 16 -10 8 -3 12 -2 9 4 -6 10 -25 14 -25 6z"/>
<path d="M2519 2131 c-8 -10 -19 -26 -22 -37 -6 -17 -5 -16 12 3 14 17 21 19
32 10 11 -10 11 -9 0 6 -11 14 -11 17 2 17 9 0 19 5 22 10 11 17 -29 9 -46 -9z"/>
<path d="M2643 2132 c-9 -15 -7 -18 14 -20 23 -2 24 0 12 16 -7 9 -14 18 -14
19 0 1 -6 -6 -12 -15z"/>
<path d="M4660 2142 c0 -15 28 -23 36 -9 4 7 4 9 -1 5 -4 -4 -14 -3 -22 3 -8
7 -13 8 -13 1z"/>
<path d="M829 2117 c-7 -15 -16 -24 -20 -21 -5 3 -6 -2 -3 -11 5 -13 11 -9 26
16 10 17 17 34 14 36 -3 3 -11 -6 -17 -20z"/>
<path d="M2580 2106 c0 -8 -6 -16 -12 -19 -7 -2 -10 -7 -7 -11 3 -3 16 5 29
19 19 21 21 25 7 25 -9 0 -17 -6 -17 -14z"/>
<path d="M4713 2105 c0 -8 4 -12 9 -9 5 3 6 10 3 15 -9 13 -12 11 -12 -6z"/>
<path d="M1216 2101 c-7 -11 66 -30 142 -36 101 -10 292 -11 292 -3 0 4 -8 8
-17 8 -115 3 -267 10 -303 14 -25 3 -53 6 -62 6 -10 1 -20 5 -23 11 -8 11 -22
12 -29 0z"/>
<path d="M1023 1883 c-110 -188 -120 -209 -105 -221 15 -11 19 -9 30 18 6 16
16 30 21 30 4 0 27 38 49 85 27 56 49 88 64 94 14 5 18 10 10 15 -7 4 -10 12
-6 17 3 5 9 7 13 5 4 -3 7 5 7 17 -1 13 6 23 17 25 12 2 17 -3 17 -17 0 -12 5
-21 10 -21 13 0 13 23 -1 37 -14 14 -3 67 12 57 7 -4 9 1 4 15 -4 12 -2 21 4
21 6 0 11 -5 11 -12 0 -6 3 -8 7 -5 6 7 -25 47 -36 47 -4 0 -61 -93 -128 -207z"/>
<path d="M2446 2051 c-28 -29 -28 -29 -10 -62 11 -23 19 -29 22 -19 3 7 0 16
-6 18 -20 6 -13 43 11 62 12 10 19 21 16 24 -3 3 -18 -7 -33 -23z"/>
<path d="M3286 2071 c-3 -5 1 -14 9 -21 12 -10 15 -10 15 3 0 19 -16 31 -24
18z"/>
<path d="M2535 2039 c-5 -23 -10 -28 -16 -18 -14 22 -10 4 5 -25 13 -26 13
-26 19 21 6 56 2 68 -8 22z"/>
<path d="M2378 2054 c-5 -4 -8 -19 -8 -33 0 -18 3 -22 11 -14 6 6 9 21 7 33
-1 12 -6 18 -10 14z"/>
<path d="M1228 2033 c7 -3 16 -2 19 1 4 3 -2 6 -13 5 -11 0 -14 -3 -6 -6z"/>
<path d="M755 2011 c-3 -5 -2 -12 3 -15 5 -3 9 1 9 9 0 17 -3 19 -12 6z"/>
<path d="M1308 2013 c7 -3 16 -2 19 1 4 3 -2 6 -13 5 -11 0 -14 -3 -6 -6z"/>
<path d="M1583 2013 c9 -2 23 -2 30 0 6 3 -1 5 -18 5 -16 0 -22 -2 -12 -5z"/>
<path d="M1393 2003 c32 -2 81 -2 110 0 29 2 3 3 -58 3 -60 0 -84 -1 -52 -3z"/>
<path d="M3325 1980 c9 -16 18 -30 21 -30 2 0 -2 14 -11 30 -9 17 -18 30 -21
30 -2 0 2 -13 11 -30z"/>
<path d="M745 1969 c-4 -6 -5 -12 -2 -15 2 -3 7 2 10 11 7 17 1 20 -8 4z"/>
<path d="M2390 1965 c0 -11 5 -27 10 -35 8 -12 10 -12 10 5 0 11 -5 27 -10 35
-8 12 -10 12 -10 -5z"/>
<path d="M2444 1914 l-12 -36 90 -89 c93 -91 104 -96 135 -57 12 15 23 118 13
118 -4 0 -10 -23 -12 -52 -6 -54 -32 -88 -52 -68 -8 8 -6 14 4 21 11 8 9 9 -8
4 -26 -8 -62 18 -62 43 0 9 -2 13 -5 10 -3 -3 -24 12 -46 33 -37 34 -40 41
-33 73 8 46 2 46 -12 0z"/>
<path d="M2556 1925 c9 -21 67 -47 113 -49 29 -2 38 1 34 11 -4 9 0 11 11 7 9
-3 16 -1 16 5 0 14 -4 14 -52 -1 -34 -10 -44 -9 -74 7 -19 10 -34 22 -34 27 0
4 -4 8 -10 8 -5 0 -7 -7 -4 -15z"/>
<path d="M4920 1916 c0 -2 8 -10 18 -17 15 -13 16 -12 3 4 -13 16 -21 21 -21
13z"/>
<path d="M687 1896 c-4 -10 -1 -13 8 -9 8 3 12 9 9 14 -7 12 -11 11 -17 -5z"/>
<path d="M4519 1893 c15 -27 50 -53 56 -43 9 15 -4 30 -26 30 -10 0 -19 7 -19
15 0 8 -5 15 -10 15 -7 0 -7 -6 -1 -17z"/>
<path d="M4966 1893 c-6 -14 -5 -15 5 -6 7 7 10 15 7 18 -3 3 -9 -2 -12 -12z"/>
<path d="M3388 1878 c6 -26 33 -71 38 -65 4 4 -34 87 -40 87 -2 0 -2 -10 2
-22z"/>
<path d="M1080 1870 c0 -5 5 -10 11 -10 5 0 7 5 4 10 -3 6 -8 10 -11 10 -2 0
-4 -4 -4 -10z"/>
<path d="M666 1862 c-3 -5 1 -9 9 -9 8 0 12 4 9 9 -3 4 -7 8 -9 8 -2 0 -6 -4
-9 -8z"/>
<path d="M2401 1848 c-1 -9 10 -29 24 -44 14 -15 25 -23 25 -19 0 4 10 0 23
-10 12 -10 3 0 -19 23 -23 22 -44 47 -47 54 -4 9 -6 7 -6 -4z"/>
<path d="M4510 1851 c0 -4 -16 -7 -36 -7 -26 0 -41 -7 -55 -24 -29 -38 -22
-46 10 -11 26 28 33 30 75 26 46 -5 64 8 26 18 -11 3 -20 2 -20 -2z"/>
<path d="M4570 1824 c0 -17 17 -36 24 -26 3 5 -1 15 -9 22 -8 7 -15 9 -15 4z"/>
<path d="M4605 1820 c3 -5 8 -10 11 -10 2 0 4 5 4 10 0 6 -5 10 -11 10 -5 0
-7 -4 -4 -10z"/>
<path d="M4422 1775 c-25 -30 -29 -41 -22 -60 5 -13 7 -25 6 -26 -2 -2 12 -20
32 -39 19 -19 30 -27 22 -17 -10 13 -10 20 0 32 7 8 16 13 20 10 4 -2 20 9 35
25 16 17 37 30 46 30 10 0 20 3 22 8 8 11 -27 49 -41 44 -7 -2 -11 2 -10 8 2
7 -4 15 -12 17 -12 4 -12 3 -2 -5 11 -7 10 -10 -3 -16 -23 -8 -25 -8 -22 6 1
7 -7 14 -19 16 -14 2 -31 -9 -52 -33z m43 15 c-3 -5 -12 -10 -18 -10 -7 0 -6
4 3 10 19 12 23 12 15 0z m58 -39 c-14 -62 -39 -77 -75 -44 -39 35 -14 72 49
70 30 -1 32 -3 26 -26z m35 -2 c-20 -13 -28 -11 -22 5 3 8 12 12 21 9 12 -5
12 -7 1 -14z m-138 -21 c0 -18 -2 -20 -9 -8 -6 8 -7 18 -5 22 9 14 14 9 14
-14z m25 -38 c3 -5 -1 -10 -9 -10 -9 0 -16 5 -16 10 0 6 4 10 9 10 6 0 13 -4
16 -10z"/>
<path d="M620 1781 c0 -6 4 -13 10 -16 6 -3 7 1 4 9 -7 18 -14 21 -14 7z"/>
<path d="M3430 1781 c0 -6 4 -13 10 -16 6 -3 7 1 4 9 -7 18 -14 21 -14 7z"/>
<path d="M4605 1780 c-3 -5 -1 -18 4 -27 9 -15 10 -14 9 10 -3 30 -4 32 -13
17z"/>
<path d="M2710 1725 c-45 -46 -60 -55 -89 -55 -19 0 -43 8 -53 17 -16 14 -18
14 -13 1 9 -23 50 -41 77 -34 22 5 99 71 127 109 25 32 6 17 -49 -38z"/>
<path d="M4365 1751 c-3 -10 -1 -29 4 -42 8 -20 9 -18 8 19 -1 47 -3 50 -12
23z"/>
<path d="M4631 1754 c0 -11 3 -14 6 -6 3 7 2 16 -1 19 -3 4 -6 -2 -5 -13z"/>
<path d="M2490 1743 c1 -11 50 -46 50 -35 0 10 -33 42 -43 42 -4 0 -7 -3 -7
-7z"/>
<path d="M3460 1741 c0 -5 5 -13 10 -16 6 -3 10 -2 10 4 0 5 -4 13 -10 16 -5
3 -10 2 -10 -4z"/>
<path d="M4560 1691 c-14 -14 -35 -37 -48 -51 -20 -25 -21 -26 -2 -27 10 -1
24 6 31 15 11 14 11 15 -1 5 -23 -21 -35 -15 -15 7 10 11 22 17 28 13 5 -3 7
-2 4 3 -7 13 3 28 27 41 10 6 15 13 10 15 -5 3 -20 -6 -34 -21z"/>
<path d="M3480 1707 c0 -3 9 -21 21 -39 17 -28 19 -29 14 -8 -7 24 -35 62 -35
47z"/>
<path d="M957 1649 c13 -11 152 -61 180 -64 95 -11 217 -27 269 -35 100 -16
164 -11 164 11 0 6 -27 7 -65 3 -39 -4 -70 -3 -77 3 -10 8 -162 23 -248 25
-24 0 -112 28 -143 45 -28 15 -94 26 -80 12z"/>
<path d="M4465 1650 c3 -5 8 -10 11 -10 2 0 4 5 4 10 0 6 -5 10 -11 10 -5 0
-7 -4 -4 -10z"/>
<path d="M530 1631 c-7 -14 -7 -22 0 -26 6 -4 10 -3 9 2 -4 21 2 34 13 27 7
-4 8 -3 4 4 -10 16 -14 15 -26 -7z"/>
<path d="M876 1634 c-3 -9 -49 -86 -102 -171 -52 -86 -94 -157 -92 -158 9 -8
131 -65 178 -83 106 -42 251 -70 360 -72 120 -2 144 -1 137 6 -3 3 -50 7 -104
10 -99 4 -230 21 -248 33 -5 3 -21 7 -35 8 -40 2 -114 25 -130 39 -8 7 -27 16
-42 19 -16 4 -28 11 -28 16 0 5 -6 6 -12 4 -18 -7 -46 13 -33 23 6 4 26 38 45
75 19 37 43 77 53 87 9 11 22 31 27 45 6 17 14 24 22 19 7 -4 10 -4 6 0 -11
12 32 87 45 79 7 -3 3 3 -7 15 -23 26 -32 27 -40 6z"/>
<path d="M4408 1630 c12 -11 24 -20 28 -20 4 0 -1 9 -11 20 -10 11 -23 20 -28
20 -6 0 -1 -9 11 -20z"/>
<path d="M2568 1623 c7 -3 16 -2 19 1 4 3 -2 6 -13 5 -11 0 -14 -3 -6 -6z"/>
<path d="M3540 1602 c0 -5 9 -20 19 -33 20 -24 20 -24 14 -2 -6 24 -33 53 -33
35z"/>
<path d="M4725 1581 c4 -35 43 -160 44 -140 1 9 -8 42 -19 75 -24 74 -24 78 0
71 11 -3 23 -1 26 4 3 5 2 9 -3 10 -4 0 -18 2 -29 3 -18 2 -21 -2 -19 -23z"/>
<path d="M1022 1564 c9 -9 21 -15 27 -13 6 2 -2 10 -17 17 -25 11 -25 11 -10
-4z"/>
<path d="M4787 1569 c7 -7 15 -10 18 -7 3 3 -2 9 -12 12 -14 6 -15 5 -6 -5z"/>
<path d="M4890 1565 c0 -8 4 -15 10 -15 5 0 7 7 4 15 -4 8 -8 15 -10 15 -2 0
-4 -7 -4 -15z"/>
<path d="M481 1548 c-10 -16 -10 -23 0 -32 9 -8 10 -8 5 2 -4 7 -2 20 5 28 6
8 10 16 8 19 -3 2 -11 -5 -18 -17z"/>
<path d="M970 1566 c0 -9 32 -36 42 -36 6 0 1 9 -12 20 -23 20 -30 24 -30 16z"/>
<path d="M1135 1530 c19 -8 73 -14 64 -6 -2 2 -22 6 -44 9 -28 5 -34 4 -20 -3z"/>
<path d="M3590 1521 c5 -11 15 -23 21 -27 6 -3 3 5 -6 20 -20 30 -30 35 -15 7z"/>
<path d="M2139 1513 c-13 -16 -12 -17 4 -4 9 7 17 15 17 17 0 8 -8 3 -21 -13z"/>
<path d="M4227 1515 c3 -8 9 -12 14 -9 12 7 11 11 -5 17 -10 4 -13 1 -9 -8z"/>
<path d="M1096 1508 c3 -5 10 -6 15 -3 13 9 11 12 -6 12 -8 0 -12 -4 -9 -9z"/>
<path d="M4165 1509 c-4 -6 -5 -12 -2 -15 2 -3 7 2 10 11 7 17 1 20 -8 4z"/>
<path d="M1258 1503 c7 -3 16 -2 19 1 4 3 -2 6 -13 5 -11 0 -14 -3 -6 -6z"/>
<path d="M2096 1502 c-3 -6 -1 -14 5 -17 15 -10 25 3 12 16 -7 7 -13 7 -17 1z"/>
<path d="M1533 1493 c9 -2 23 -2 30 0 6 3 -1 5 -18 5 -16 0 -22 -2 -12 -5z"/>
<path d="M4841 1484 c0 -11 3 -14 6 -6 3 7 2 16 -1 19 -3 4 -6 -2 -5 -13z"/>
<path d="M1050 1486 c0 -2 8 -10 18 -17 15 -13 16 -12 3 4 -13 16 -21 21 -21
13z"/>
<path d="M2130 1471 c0 -5 7 -12 16 -15 14 -5 15 -4 4 9 -14 17 -20 19 -20 6z"/>
<path d="M4881 1464 c0 -11 3 -14 6 -6 3 7 2 16 -1 19 -3 4 -6 -2 -5 -13z"/>
<path d="M2074 1448 l-19 -23 23 19 c21 18 27 26 19 26 -2 0 -12 -10 -23 -22z"/>
<path d="M3630 1464 c0 -7 9 -22 20 -35 25 -31 26 -12 0 21 -11 14 -20 20 -20
14z"/>
<path d="M1278 1453 c7 -3 16 -2 19 1 4 3 -2 6 -13 5 -11 0 -14 -3 -6 -6z"/>
<path d="M4852 1440 c0 -14 2 -19 5 -12 2 6 2 18 0 25 -3 6 -5 1 -5 -13z"/>
<path d="M4080 1432 c0 -12 3 -12 18 -1 9 7 19 14 21 16 2 1 -6 1 -18 0 -11
-1 -21 -8 -21 -15z"/>
<path d="M1155 1420 c10 -11 20 -20 23 -20 3 0 -3 9 -13 20 -10 11 -20 20 -23
20 -3 0 3 -9 13 -20z"/>
<path d="M2021 1427 c-8 -10 -7 -14 2 -14 8 0 14 6 14 14 0 7 -1 13 -2 13 -2
0 -8 -6 -14 -13z"/>
<path d="M4186 1408 c-24 -34 -2 -49 27 -18 12 13 14 18 4 10 -9 -7 -21 -10
-25 -6 -4 4 2 14 12 22 11 8 15 14 8 14 -6 0 -18 -10 -26 -22z"/>
<path d="M4740 1404 c0 -8 5 -12 10 -9 6 3 10 10 10 16 0 5 -4 9 -10 9 -5 0
-10 -7 -10 -16z"/>
<path d="M1130 1406 c0 -2 8 -10 18 -17 15 -13 16 -12 3 4 -13 16 -21 21 -21
13z"/>
<path d="M4111 1390 c-13 -11 -19 -20 -14 -20 6 0 18 9 28 20 23 25 17 25 -14
0z"/>
<path d="M1990 1365 c-27 -28 -50 -34 -29 -7 7 9 1 6 -14 -7 -28 -25 -38 -43
-12 -21 25 21 17 -2 -12 -34 -15 -17 0 -4 35 29 34 33 62 61 62 62 0 7 -8 1
-30 -22z"/>
<path d="M4842 1370 c0 -14 2 -19 5 -12 2 6 2 18 0 25 -3 6 -5 1 -5 -13z"/>
<path d="M4724 1366 c-3 -9 -11 -13 -17 -9 -6 4 -7 1 -2 -6 6 -10 11 -9 23 3
9 8 13 19 9 22 -4 4 -9 -1 -13 -10z"/>
<path d="M4003 1355 c0 -8 4 -12 9 -9 4 3 8 9 8 15 0 5 -4 9 -8 9 -5 0 -9 -7
-9 -15z"/>
<path d="M4124 1359 c-8 -14 14 -19 25 -6 8 10 7 14 -5 14 -8 0 -17 -4 -20 -8z"/>
<path d="M1235 1340 c10 -11 20 -20 23 -20 3 0 -3 9 -13 20 -10 11 -20 20 -23
20 -3 0 3 -9 13 -20z"/>
<path d="M4065 1351 c-3 -6 -10 -9 -15 -6 -5 3 -11 1 -14 -4 -4 -5 -3 -12 1
-14 10 -7 48 21 41 29 -3 3 -9 0 -13 -5z"/>
<path d="M4095 1330 c-3 -6 1 -7 9 -4 9 4 16 1 16 -6 0 -7 7 -10 16 -6 12 5
15 2 10 -11 -6 -14 -4 -15 5 -6 12 12 3 37 -11 28 -5 -3 -11 -1 -15 5 -8 13
-22 13 -30 0z"/>
<path d="M1210 1326 c0 -2 8 -10 18 -17 15 -13 16 -12 3 4 -13 16 -21 21 -21
13z"/>
<path d="M4014 1316 c1 -8 5 -18 8 -22 4 -3 5 1 4 10 -1 8 -5 18 -8 22 -4 3
-5 -1 -4 -10z"/>
<path d="M4680 1320 c-9 -6 -10 -10 -3 -10 6 0 15 5 18 10 8 12 4 12 -15 0z"/>
<path d="M2881 1304 c0 -11 3 -14 6 -6 3 7 2 16 -1 19 -3 4 -6 -2 -5 -13z"/>
<path d="M6751 1304 c0 -11 3 -14 6 -6 3 7 2 16 -1 19 -3 4 -6 -2 -5 -13z"/>
<path d="M3731 1300 c0 -8 6 -24 14 -34 19 -25 19 -9 0 24 -8 14 -14 19 -14
10z"/>
<path d="M4644 1278 l-19 -23 25 20 c14 11 27 21 29 22 2 2 0 3 -6 3 -5 0 -18
-10 -29 -22z"/>
<path d="M621 1216 c-28 -43 -53 -93 -57 -112 -53 -283 396 -581 1097 -729
454 -96 806 -107 1269 -40 153 23 178 29 199 50 14 13 22 28 17 32 -4 4 -10 3
-14 -3 -4 -6 -25 -14 -47 -17 -22 -3 -67 -11 -101 -16 -148 -26 -354 -44 -539
-48 -184 -4 -200 -3 -213 14 -13 16 -14 16 -9 1 5 -15 1 -17 -26 -14 -18 2
-66 7 -107 11 -41 3 -90 11 -108 17 -18 5 -50 10 -70 10 -20 -1 -46 2 -57 5
l-20 6 20 8 c16 6 17 8 3 8 -9 1 -20 -4 -23 -10 -9 -13 -106 6 -266 53 -20 6
-41 8 -45 6 -5 -3 -25 1 -44 8 -33 13 -33 14 -5 9 25 -4 27 -3 12 6 -10 6 -26
8 -35 4 -9 -3 -48 4 -87 16 -100 31 -143 48 -122 48 15 1 16 3 5 15 -7 8 -15
11 -18 7 -3 -3 -15 -12 -27 -19 -19 -10 -23 -10 -23 1 0 7 -25 24 -55 36 -31
13 -62 30 -70 38 -9 8 -15 10 -15 4 0 -8 -6 -7 -20 1 -14 9 -16 15 -7 20 7 5
0 6 -15 2 -20 -4 -29 -2 -34 10 -3 9 -15 16 -25 16 -11 0 -22 7 -25 15 -4 8
-14 15 -24 15 -11 0 -22 5 -26 12 -5 7 -3 8 6 3 8 -5 11 -4 6 3 -4 6 -13 9
-21 6 -9 -4 -19 4 -27 20 -6 15 -17 25 -25 22 -7 -3 -17 4 -23 14 -6 11 -21
22 -34 26 -13 3 -29 16 -36 30 -8 13 -17 24 -22 24 -4 0 -8 7 -8 15 0 8 -14
29 -30 47 -17 17 -37 54 -45 81 -18 61 -18 68 -3 64 6 -1 14 6 16 17 3 13 0
16 -9 11 -9 -6 -11 -3 -6 9 4 10 7 22 7 27 0 6 5 7 12 3 7 -4 8 -3 4 4 -4 6 4
22 16 34 29 29 50 87 38 107 -6 11 -20 -4 -59 -63z"/>
<path d="M1335 1281 c-3 -5 -2 -12 3 -15 5 -3 9 1 9 9 0 17 -3 19 -12 6z"/>
<path d="M3929 1273 c-13 -16 -12 -17 4 -4 24 19 34 6 14 -17 -10 -10 -17 -27
-17 -38 1 -18 1 -18 16 1 8 11 19 20 24 20 4 0 12 4 17 9 4 5 3 6 -4 2 -6 -3
-14 -2 -17 3 -6 9 22 26 37 22 5 -1 6 3 2 9 -5 8 -11 8 -20 0 -9 -8 -15 -8
-20 0 -9 15 -21 12 -36 -7z"/>
<path d="M6731 1274 c0 -11 3 -14 6 -6 3 7 2 16 -1 19 -3 4 -6 -2 -5 -13z"/>
<path d="M4059 1275 c-1 -3 -2 -8 -3 -12 -1 -5 -5 -14 -9 -20 -10 -15 -1 -33
16 -33 8 0 8 3 -2 9 -8 5 -9 11 -3 15 6 3 10 15 9 26 -1 19 -5 26 -8 15z"/>
<path d="M1280 1263 c0 -11 49 -63 52 -56 2 5 -9 20 -24 35 -15 15 -28 24 -28
21z"/>
<path d="M1310 1266 c0 -2 8 -10 18 -17 15 -13 16 -12 3 4 -13 16 -21 21 -21
13z"/>
<path d="M1866 1258 c3 -4 9 -8 15 -8 5 0 9 4 9 8 0 5 -7 9 -15 9 -8 0 -12 -4
-9 -9z"/>
<path d="M700 1250 c0 -5 9 -14 20 -20 11 -6 20 -9 20 -8 0 2 -9 11 -20 21
-11 9 -20 13 -20 7z"/>
<path d="M4595 1240 c-3 -5 -2 -10 4 -10 5 0 13 5 16 10 3 6 2 10 -4 10 -5 0
-13 -4 -16 -10z"/>
<path d="M1839 1213 l-24 -28 28 24 c25 23 32 31 24 31 -2 0 -14 -12 -28 -27z"/>
<path d="M1887 1226 c-4 -10 -1 -13 9 -9 15 6 19 23 5 23 -5 0 -11 -7 -14 -14z"/>
<path d="M1255 1220 c-3 -5 1 -10 9 -10 9 0 16 5 16 10 0 6 -4 10 -9 10 -6 0
-13 -4 -16 -10z"/>
<path d="M3992 1221 c0 -3 -1 -8 -2 -11 -7 -20 -7 -39 2 -34 5 3 7 9 4 12 -3
3 1 13 9 22 13 14 13 17 1 17 -8 0 -15 -3 -14 -6z"/>
<path d="M4747 1223 c-10 -9 -9 -23 1 -23 5 0 9 7 9 15 0 17 -1 18 -10 8z"/>
<path d="M754 1211 c4 -6 16 -16 28 -22 15 -8 18 -8 14 0 -4 6 -16 16 -28 22
-15 8 -18 8 -14 0z"/>
<path d="M1415 1201 c-3 -5 -2 -12 3 -15 5 -3 9 1 9 9 0 17 -3 19 -12 6z"/>
<path d="M4801 1196 c-8 -10 -9 -16 -1 -21 5 -3 10 -5 11 -3 4 18 7 38 4 38
-1 0 -8 -6 -14 -14z"/>
<path d="M730 1184 c0 -8 5 -12 10 -9 6 3 10 10 10 16 0 5 -4 9 -10 9 -5 0
-10 -7 -10 -16z"/>
<path d="M1781 1187 c-8 -10 -7 -14 2 -14 8 0 14 6 14 14 0 7 -1 13 -2 13 -2
0 -8 -6 -14 -13z"/>
<path d="M3845 1189 c-4 -6 -5 -12 -2 -15 2 -3 7 2 10 11 7 17 1 20 -8 4z"/>
<path d="M1360 1183 c0 -6 7 -16 15 -23 8 -7 12 -17 8 -23 -4 -6 -1 -7 6 -3 9
6 8 13 -6 29 -10 12 -19 24 -20 26 -2 2 -3 0 -3 -6z"/>
<path d="M1390 1186 c0 -2 8 -10 18 -17 15 -13 16 -12 3 4 -13 16 -21 21 -21
13z"/>
<path d="M4437 1183 c-4 -3 -7 -11 -7 -17 0 -6 5 -5 12 2 6 6 9 14 7 17 -3 3
-9 2 -12 -2z"/>
<path d="M4483 1169 c-18 -12 -33 -26 -32 -32 0 -8 2 -8 6 1 2 6 11 12 19 12
8 0 14 5 14 10 0 6 6 10 14 10 8 0 18 5 21 10 10 16 -7 11 -42 -11z"/>
<path d="M700 1171 c0 -6 5 -13 10 -16 6 -3 10 1 10 9 0 9 -4 16 -10 16 -5 0
-10 -4 -10 -9z"/>
<path d="M3857 1161 c-11 -14 -10 -14 6 -2 12 9 17 10 17 2 0 -7 5 -9 10 -6
15 9 12 22 -5 22 -8 0 -21 -7 -28 -16z"/>
<path d="M3941 1171 c-7 -5 -11 -15 -9 -22 3 -10 8 -7 17 9 13 24 12 26 -8 13z"/>
<path d="M246 1162 c-3 -5 1 -9 9 -9 8 0 12 4 9 9 -3 4 -7 8 -9 8 -2 0 -6 -4
-9 -8z"/>
<path d="M878 1153 c7 -3 16 -2 19 1 4 3 -2 6 -13 5 -11 0 -14 -3 -6 -6z"/>
<path d="M1749 1123 l-24 -28 28 24 c15 14 27 26 27 28 0 8 -8 1 -31 -24z"/>
<path d="M3901 1136 c-9 -11 -9 -16 0 -22 7 -4 9 -3 5 4 -3 5 0 12 6 15 7 2
10 7 7 11 -3 4 -12 0 -18 -8z"/>
<path d="M225 1131 c-3 -5 -2 -12 3 -15 5 -3 9 1 9 9 0 17 -3 19 -12 6z"/>
<path d="M938 1133 c7 -3 16 -2 19 1 4 3 -2 6 -13 5 -11 0 -14 -3 -6 -6z"/>
<path d="M3837 1123 c3 -7 6 -13 8 -13 1 0 7 6 13 13 8 10 6 13 -7 13 -11 0
-17 -6 -14 -13z"/>
<path d="M4348 1123 c7 -3 16 -2 19 1 4 3 -2 6 -13 5 -11 0 -14 -3 -6 -6z"/>
<path d="M4610 1109 c-20 -16 -20 -18 -4 -10 15 7 25 7 34 -2 12 -10 12 -9 2
4 -6 9 -9 19 -5 22 14 15 -3 5 -27 -14z"/>
<path d="M760 1115 c0 -5 9 -23 20 -40 26 -39 26 -25 0 17 -11 18 -20 29 -20
23z"/>
<path d="M1335 1110 c-3 -6 1 -7 9 -4 18 7 21 14 7 14 -6 0 -13 -4 -16 -10z"/>
<path d="M4400 1110 c-8 -5 -10 -10 -5 -10 6 0 17 5 25 10 8 5 11 10 5 10 -5
0 -17 -5 -25 -10z"/>
<path d="M843 1088 c22 -21 41 -24 34 -5 -2 6 -10 11 -17 9 -7 -1 -17 1 -24 5
-7 4 -3 0 7 -9z"/>
<path d="M1038 1098 c7 -7 34 -8 89 -1 l78 10 -89 1 c-64 1 -86 -2 -78 -10z"/>
<path d="M1263 1103 c9 -2 25 -2 35 0 9 3 1 5 -18 5 -19 0 -27 -2 -17 -5z"/>
<path d="M1485 1090 c10 -11 20 -20 23 -20 3 0 -3 9 -13 20 -10 11 -20 20 -23
20 -3 0 3 -9 13 -20z"/>
<path d="M1696 1102 c-3 -6 -1 -14 5 -17 15 -10 25 3 12 16 -7 7 -13 7 -17 1z"/>
<path d="M3864 1094 c-10 -8 -13 -12 -5 -8 7 3 17 0 22 -7 6 -10 8 -7 6 9 0
12 -2 22 -2 22 -1 0 -10 -7 -21 -16z"/>
<path d="M4340 1073 l-25 -25 30 18 c17 10 31 19 33 20 2 1 0 4 -5 7 -4 2 -19
-7 -33 -20z"/>
<path d="M1450 1086 c0 -2 8 -10 18 -17 15 -13 16 -12 3 4 -13 16 -21 21 -21
13z"/>
<path d="M1743 1083 c-15 -5 -17 -23 -4 -23 5 0 11 7 15 15 3 8 4 15 3 14 -1
0 -8 -3 -14 -6z"/>
<path d="M4537 1064 c-16 -9 -26 -18 -23 -21 3 -3 12 0 20 6 8 7 19 10 24 7 5
-3 9 1 9 9 0 8 -1 15 -1 15 -1 -1 -14 -8 -29 -16z"/>
<path d="M1680 1055 c-7 -8 -17 -12 -22 -9 -5 3 -19 -2 -30 -13 -21 -18 -21
-18 -14 2 6 16 5 17 -5 8 -10 -10 -9 -15 1 -28 10 -12 10 -18 -1 -32 -7 -10
-1 -7 14 7 15 13 25 30 22 38 -3 9 0 12 9 9 8 -3 22 3 32 14 9 10 15 19 12 19
-3 0 -11 -7 -18 -15z"/>
<path d="M3860 1066 c0 -2 8 -10 18 -17 15 -13 16 -12 3 4 -13 16 -21 21 -21
13z"/>
<path d="M1552 1042 c-9 -6 -7 -13 10 -27 13 -11 17 -13 11 -5 -19 21 -16 34
5 19 15 -13 16 -12 3 4 -7 9 -14 17 -15 17 0 0 -7 -4 -14 -8z"/>
<path d="M4240 1022 c-60 -36 -110 -74 -110 -84 0 -7 15 3 54 37 6 6 33 21 59
35 46 24 67 41 50 39 -4 0 -28 -12 -53 -27z"/>
<path d="M622 1020 c0 -14 2 -19 5 -12 2 6 2 18 0 25 -3 6 -5 1 -5 -13z"/>
<path d="M818 1028 c10 -13 10 -17 0 -20 -8 -3 -9 -6 -1 -11 18 -12 23 21 5
35 -15 11 -16 11 -4 -4z"/>
<path d="M990 1030 c0 -5 7 -10 15 -10 8 0 15 5 15 10 0 6 -7 10 -15 10 -8 0
-15 -4 -15 -10z"/>
<path d="M4215 1030 c-3 -6 1 -7 9 -4 18 7 21 14 7 14 -6 0 -13 -4 -16 -10z"/>
<path d="M946 1014 c30 -28 64 -46 64 -34 0 5 -19 19 -42 31 -37 18 -40 19
-22 3z"/>
<path d="M3895 1020 c3 -5 8 -10 11 -10 2 0 4 5 4 10 0 6 -5 10 -11 10 -5 0
-7 -4 -4 -10z"/>
<path d="M4460 1020 c-13 -9 -13 -10 0 -10 8 0 22 5 30 10 13 9 13 10 0 10 -8
0 -22 -5 -30 -10z"/>
<path d="M4556 1003 c-4 -9 3 -9 25 -1 36 12 37 16 4 14 -14 0 -27 -6 -29 -13z"/>
<path d="M5149 993 c-13 -16 -12 -17 4 -4 9 7 17 15 17 17 0 8 -8 3 -21 -13z"/>
<path d="M850 990 c0 -5 5 -10 11 -10 5 0 7 5 4 10 -3 6 -8 10 -11 10 -2 0 -4
-4 -4 -10z"/>
<path d="M4389 989 c-9 -5 -9 -9 -2 -9 6 0 18 -3 27 -6 9 -3 16 -2 16 4 0 15
-25 21 -41 11z"/>
<path d="M1022 968 c2 -6 10 -13 16 -14 7 -1 8 0 2 3 -5 2 -8 9 -4 14 3 5 0 9
-6 9 -7 0 -10 -5 -8 -12z"/>
<path d="M1625 970 c-3 -5 -1 -10 4 -10 6 0 11 5 11 10 0 6 -2 10 -4 10 -3 0
-8 -4 -11 -10z"/>
<path d="M1536 918 l-38 -53 42 43 c22 24 40 48 38 53 -2 5 -20 -14 -42 -43z"/>
<path d="M1140 950 c0 -5 5 -10 10 -10 6 0 10 5 10 10 0 6 -4 10 -10 10 -5 0
-10 -4 -10 -10z"/>
<path d="M919 932 c13 -11 20 -21 15 -24 -5 -3 -4 -4 3 -2 6 1 19 -4 30 -11
10 -8 22 -15 27 -15 5 0 -9 13 -30 28 -49 35 -77 50 -45 24z"/>
<path d="M1060 945 c0 -6 104 -55 108 -50 2 2 -20 15 -49 29 -56 28 -59 29
-59 21z"/>
<path d="M1615 920 c10 -11 20 -20 23 -20 3 0 -3 9 -13 20 -10 11 -20 20 -23
20 -3 0 3 -9 13 -20z"/>
<path d="M4270 930 c8 -5 20 -10 25 -10 6 0 3 5 -5 10 -8 5 -19 10 -25 10 -5
0 -3 -5 5 -10z"/>
<path d="M5106 932 c-3 -5 1 -9 9 -9 8 0 12 4 9 9 -3 4 -7 8 -9 8 -2 0 -6 -4
-9 -8z"/>
<path d="M4225 920 c4 -6 11 -8 16 -5 14 9 11 15 -7 15 -8 0 -12 -5 -9 -10z"/>
<path d="M4173 913 c9 -2 23 -2 30 0 6 3 -1 5 -18 5 -16 0 -22 -2 -12 -5z"/>
<path d="M5066 908 c3 -5 10 -6 15 -3 13 9 11 12 -6 12 -8 0 -12 -4 -9 -9z"/>
<path d="M5010 879 c-23 -20 -26 -25 -9 -15 14 9 29 13 33 9 4 -5 6 -1 4 7 -2
8 3 14 10 12 8 -1 11 2 7 8 -8 13 -4 14 -45 -21z"/>
<path d="M1555 890 c-3 -5 -1 -10 4 -10 6 0 11 5 11 10 0 6 -2 10 -4 10 -3 0
-8 -4 -11 -10z"/>
<path d="M4098 893 c7 -3 16 -2 19 1 4 3 -2 6 -13 5 -11 0 -14 -3 -6 -6z"/>
<path d="M1190 880 c8 -5 20 -10 25 -10 6 0 3 5 -5 10 -8 5 -19 10 -25 10 -5
0 -3 -5 5 -10z"/>
<path d="M1475 880 c-4 -6 -10 -8 -14 -6 -4 3 -8 -1 -8 -9 0 -8 4 -12 9 -9 4
3 8 1 8 -4 0 -11 -29 -37 -50 -45 -13 -5 -13 -6 1 -6 18 -1 65 46 56 56 -4 3
-2 12 4 20 6 7 9 13 6 13 -3 0 -9 -5 -12 -10z"/>
<path d="M1274 849 c27 -11 54 -18 60 -16 11 4 -79 37 -98 36 -6 0 11 -9 38
-20z"/>
<path d="M1710 866 c0 -2 8 -10 18 -17 15 -13 16 -12 3 4 -13 16 -21 21 -21
13z"/>
<path d="M1030 856 c0 -2 7 -7 16 -10 8 -3 12 -2 9 4 -6 10 -25 14 -25 6z"/>
<path d="M1501 841 c-8 -5 -9 -11 -3 -15 5 -3 12 1 16 9 6 17 6 18 -13 6z"/>
<path d="M1690 846 c0 -2 8 -10 18 -17 15 -13 16 -12 3 4 -13 16 -21 21 -21
13z"/>
<path d="M1070 830 c0 -5 5 -10 11 -10 5 0 7 5 4 10 -3 6 -8 10 -11 10 -2 0
-4 -4 -4 -10z"/>
<path d="M4930 826 c0 -2 7 -7 16 -10 8 -3 12 -2 9 4 -6 10 -25 14 -25 6z"/>
<path d="M1465 800 c-3 -5 -2 -10 4 -10 5 0 13 5 16 10 3 6 2 10 -4 10 -5 0
-13 -4 -16 -10z"/>
<path d="M1150 791 c0 -8 41 -23 47 -17 2 1 -8 8 -22 14 -14 6 -25 8 -25 3z"/>
<path d="M1515 790 c-6 -10 1 -14 48 -24 15 -4 27 -2 27 4 0 5 -11 10 -25 10
-14 0 -25 5 -25 10 0 13 -17 13 -25 0z"/>
<path d="M4178 793 c7 -3 16 -2 19 1 4 3 -2 6 -13 5 -11 0 -14 -3 -6 -6z"/>
<path d="M1790 786 c0 -2 8 -10 18 -17 15 -13 16 -12 3 4 -13 16 -21 21 -21
13z"/>
<path d="M1220 760 c8 -5 20 -10 25 -10 6 0 3 5 -5 10 -8 5 -19 10 -25 10 -5
0 -3 -5 5 -10z"/>
<path d="M1600 767 c11 -12 78 -24 91 -16 10 6 9 8 -6 7 -11 0 -36 3 -55 7
-19 4 -33 5 -30 2z"/>
<path d="M4825 751 c-3 -5 0 -13 6 -17 8 -5 9 -3 4 6 -6 10 -4 12 9 7 10 -4
15 -3 11 3 -8 13 -22 13 -30 1z"/>
<path d="M1270 740 c0 -6 7 -10 15 -10 8 0 15 2 15 4 0 2 -7 6 -15 10 -8 3
-15 1 -15 -4z"/>
<path d="M1904 718 c-5 -8 111 -21 151 -16 17 1 -10 8 -58 13 -49 6 -91 7 -93
3z"/>
<path d="M1304 696 c-11 -6 -19 -16 -17 -23 2 -6 -6 -18 -18 -27 -13 -8 -20
-18 -18 -21 3 -3 23 13 43 36 41 43 43 52 10 35z"/>
<path d="M2123 693 c9 -2 23 -2 30 0 6 3 -1 5 -18 5 -16 0 -22 -2 -12 -5z"/>
<path d="M2295 690 c-28 -7 -28 -8 -5 -9 14 0 32 4 40 9 17 11 8 11 -35 0z"/>
<path d="M4744 692 c3 -5 0 -13 -6 -15 -9 -4 -10 -6 -1 -6 17 -1 25 16 12 25
-7 4 -9 3 -5 -4z"/>
<path d="M2218 683 c6 -2 18 -2 25 0 6 3 1 5 -13 5 -14 0 -19 -2 -12 -5z"/>
<path d="M2425 680 c-28 -7 -27 -8 13 -9 23 0 42 4 42 9 0 11 -11 11 -55 0z"/>
<path d="M2600 680 c-39 -6 -33 -7 38 -8 49 -1 82 2 82 8 0 11 -50 11 -120 0z"/>
<path d="M2800 680 c0 -6 27 -10 63 -9 46 1 56 3 37 9 -36 12 -100 12 -100 0z"/>
<path d="M1330 665 c-11 -13 -10 -14 4 -9 9 3 16 10 16 15 0 13 -6 11 -20 -6z"/>
<path d="M1578 653 c7 -3 16 -2 19 1 4 3 -2 6 -13 5 -11 0 -14 -3 -6 -6z"/>
<path d="M2915 630 c-3 -5 -1 -10 4 -10 6 0 11 5 11 10 0 6 -2 10 -4 10 -3 0
-8 -4 -11 -10z"/>
<path d="M1216 622 c-3 -5 1 -9 9 -9 8 0 12 4 9 9 -3 4 -7 8 -9 8 -2 0 -6 -4
-9 -8z"/>
<path d="M1701 626 c12 -10 60 -16 54 -6 -3 5 -18 10 -32 10 -15 0 -24 -2 -22
-4z"/>
<path d="M2858 623 c7 -3 16 -2 19 1 4 3 -2 6 -13 5 -11 0 -14 -3 -6 -6z"/>
<path d="M1820 610 c25 -8 107 -13 99 -6 -2 2 -31 6 -64 9 -37 3 -51 2 -35 -3z"/>
<path d="M1250 590 c0 -5 5 -10 11 -10 5 0 7 5 4 10 -3 6 -8 10 -11 10 -2 0
-4 -4 -4 -10z"/>
<path d="M1998 593 c6 -2 18 -2 25 0 6 3 1 5 -13 5 -14 0 -19 -2 -12 -5z"/>
<path d="M2628 593 c7 -3 16 -2 19 1 4 3 -2 6 -13 5 -11 0 -14 -3 -6 -6z"/>
<path d="M1199 573 c-13 -16 -12 -17 4 -4 16 13 21 21 13 21 -2 0 -10 -8 -17
-17z"/>
<path d="M2088 583 c6 -2 18 -2 25 0 6 3 1 5 -13 5 -14 0 -19 -2 -12 -5z"/>
<path d="M2173 583 c9 -2 23 -2 30 0 6 3 -1 5 -18 5 -16 0 -22 -2 -12 -5z"/>
<path d="M2445 585 c25 -8 115 -11 115 -4 0 5 -28 9 -62 8 -35 0 -58 -2 -53
-4z"/>
<path d="M5286 572 c-3 -5 1 -15 8 -21 11 -10 14 -9 12 3 -3 21 -13 29 -20 18z"/>
<path d="M356 562 c-3 -5 4 -18 17 -28 21 -19 21 -19 7 0 -8 11 -13 21 -12 23
2 3 1 7 -1 9 -3 3 -8 1 -11 -4z"/>
<path d="M2042 551 c-10 -6 -10 -10 1 -20 12 -9 16 -8 20 3 7 19 -4 27 -21 17z"/>
<path d="M2010 526 c0 -2 8 -10 18 -17 15 -13 16 -12 3 4 -13 16 -21 21 -21
13z"/>
<path d="M445 491 c-6 -11 13 -26 22 -17 4 3 1 6 -6 6 -7 0 -9 5 -6 10 3 6 4
10 1 10 -3 0 -7 -4 -11 -9z"/>
<path d="M2122 471 c-10 -6 -10 -10 1 -20 12 -9 16 -8 20 3 7 19 -4 27 -21 17z"/>
<path d="M2090 446 c0 -2 8 -10 18 -17 15 -13 16 -12 3 4 -13 16 -21 21 -21
13z"/>
<path d="M545 431 c-3 -5 -2 -12 3 -15 5 -3 9 1 9 9 0 17 -3 19 -12 6z"/>
<path d="M5411 418 c2 -2 14 -11 26 -21 20 -18 21 -18 19 -1 -2 9 -13 19 -26
21 -13 2 -22 2 -19 1z"/>
<path d="M2928 403 c6 -2 18 -2 25 0 6 3 1 5 -13 5 -14 0 -19 -2 -12 -5z"/>
<path d="M2174 355 c8 -8 18 -15 22 -15 3 0 1 7 -6 15 -7 8 -17 15 -22 15 -5
0 -3 -7 6 -15z"/>
<path d="M5487 359 c7 -7 15 -10 18 -7 3 3 -2 9 -12 12 -14 6 -15 5 -6 -5z"/>
<path d="M6270 320 c-9 -6 -10 -10 -3 -10 6 0 15 5 18 10 8 12 4 12 -15 0z"/>
<path d="M6210 306 c0 -2 7 -7 16 -10 8 -3 12 -2 9 4 -6 10 -25 14 -25 6z"/>
<path d="M6160 280 c8 -5 20 -10 25 -10 6 0 3 5 -5 10 -8 5 -19 10 -25 10 -5
0 -3 -5 5 -10z"/>
<path d="M5918 233 c18 -2 45 -2 60 0 15 2 0 4 -33 4 -33 0 -45 -2 -27 -4z"/>
<path d="M1148 193 c7 -3 16 -2 19 1 4 3 -2 6 -13 5 -11 0 -14 -3 -6 -6z"/>
<path d="M3228 113 c7 -3 16 -2 19 1 4 3 -2 6 -13 5 -11 0 -14 -3 -6 -6z"/>
<path d="M2957 69 c7 -7 15 -10 18 -7 3 3 -2 9 -12 12 -14 6 -15 5 -6 -5z"/>
<path d="M2661 46 c2 -2 22 -6 44 -9 27 -4 35 -3 25 3 -14 9 -79 15 -69 6z"/>
<path d="M2138 13 c7 -3 16 -2 19 1 4 3 -2 6 -13 5 -11 0 -14 -3 -6 -6z"/>
</g>
</svg>
