<?xml version="1.0" standalone="no"?>
<!DOCTYPE svg PUBLIC "-//W3C//DTD SVG 20010904//EN"
 "http://www.w3.org/TR/2001/REC-SVG-20010904/DTD/svg10.dtd">
<svg version="1.0" xmlns="http://www.w3.org/2000/svg"
 width="512.000000pt" height="512.000000pt" viewBox="0 0 512.000000 512.000000"
 preserveAspectRatio="xMidYMid meet">

<g transform="translate(0.000000,512.000000) scale(0.100000,-0.100000)"
fill="#000000" stroke="none">
<path d="M3197 4292 c-65 -23 -111 -62 -137 -117 -20 -41 -22 -58 -18 -128 l5
-82 -103 -56 c-83 -46 -106 -54 -115 -43 -23 28 -96 46 -173 42 -65 -3 -81 -8
-120 -35 l-44 -32 -59 15 c-141 36 -150 41 -157 86 -12 75 -97 130 -173 112
-73 -18 -113 -75 -113 -161 0 -90 58 -145 155 -148 35 -2 76 -14 138 -44 48
-22 93 -41 101 -41 9 0 16 -18 20 -52 13 -103 97 -222 177 -250 28 -10 29 -12
30 -76 1 -37 4 -80 8 -97 6 -27 0 -36 -60 -95 -73 -71 -89 -107 -89 -196 l0
-51 -57 -38 c-74 -49 -218 -188 -233 -226 -7 -16 -14 -29 -17 -29 -2 0 -22 9
-45 21 -27 14 -61 21 -99 22 -82 0 -151 -36 -232 -123 l-65 -70 -48 27 c-39
22 -61 28 -110 27 l-61 0 -12 45 c-6 25 -27 73 -45 106 l-33 60 19 36 c32 62
44 141 31 211 -6 35 -14 70 -18 79 -4 12 3 20 25 29 17 7 41 26 55 41 20 25
31 29 74 29 95 0 138 70 119 195 -10 66 -51 122 -118 163 -106 63 -174 34
-199 -85 -8 -34 -11 -72 -8 -85 5 -19 -2 -27 -36 -48 l-42 -25 -45 23 c-64 33
-178 28 -268 -13 l-62 -28 -68 64 c-63 60 -67 66 -64 104 6 80 -76 151 -190
161 -105 10 -168 -58 -168 -181 0 -119 68 -199 165 -194 49 2 51 1 118 -64
l69 -66 -12 -54 c-10 -41 -10 -70 -2 -117 33 -184 154 -303 323 -317 38 -3 69
-9 69 -13 0 -4 29 -43 64 -86 l64 -78 -28 -36 c-67 -86 -99 -212 -72 -290 11
-29 8 -36 -27 -84 -22 -29 -68 -78 -103 -109 l-64 -56 -49 24 c-39 20 -63 25
-125 25 -102 0 -161 -21 -220 -79 -50 -48 -70 -103 -70 -190 0 -33 -4 -39 -35
-54 -31 -15 -37 -15 -72 -1 -47 20 -111 14 -151 -15 -17 -12 -43 -46 -57 -76
-26 -51 -26 -57 -15 -107 9 -35 25 -65 53 -95 69 -75 155 -79 231 -13 18 17
40 30 49 30 8 0 34 7 57 15 41 14 44 14 62 -5 36 -38 80 -54 170 -58 81 -4 87
-6 92 -28 8 -31 68 -97 112 -125 29 -18 34 -26 34 -58 0 -51 35 -101 90 -128
123 -63 243 15 243 158 0 99 -54 171 -133 175 -34 1 -46 9 -84 51 l-45 50 20
54 c18 45 20 69 16 148 l-4 95 63 62 c34 34 83 90 108 124 l45 61 85 2 c78 2
88 5 130 34 l46 33 40 -25 c22 -14 43 -25 47 -25 5 0 20 -20 34 -43 47 -78
156 -108 238 -65 25 13 53 35 64 49 25 35 32 104 15 154 l-13 39 50 25 c142
71 202 204 159 357 -4 17 10 40 65 102 38 44 83 89 98 101 15 12 52 40 80 62
l53 39 42 -21 c76 -39 163 -31 240 23 14 10 21 8 40 -9 25 -23 218 -113 243
-113 8 0 15 -8 15 -18 0 -47 36 -118 84 -169 l52 -52 -7 -78 c-4 -43 -8 -106
-8 -139 -1 -39 -8 -78 -21 -105 -29 -64 -27 -152 5 -215 75 -151 297 -147 375
7 24 45 26 118 6 158 -19 36 -85 95 -134 120 -37 19 -39 21 -50 98 -18 114
-19 109 38 116 66 8 128 36 179 83 59 52 83 104 84 179 2 70 6 76 98 156 l57
49 58 -27 c108 -49 254 -42 348 18 47 29 58 56 32 78 -10 8 -28 3 -76 -21 -58
-30 -71 -33 -154 -33 -102 0 -135 12 -206 72 -110 94 -105 253 10 357 80 72
180 99 272 72 102 -29 149 -77 186 -186 l20 -59 -28 -10 c-44 -15 -64 -55 -61
-118 2 -33 60 -93 129 -133 49 -29 63 -43 80 -82 26 -61 83 -100 158 -106 110
-9 193 40 208 122 12 61 -11 142 -51 186 -44 50 -81 61 -163 51 -56 -7 -68 -6
-85 9 -25 23 -118 70 -138 70 -9 0 -17 14 -21 40 -9 59 -44 146 -71 178 -13
16 -42 36 -63 46 -40 18 -40 19 -62 115 -12 53 -29 108 -37 124 -13 26 -12 28
10 36 38 15 86 61 110 105 30 56 32 213 4 265 -52 94 -153 161 -274 182 -78
13 -140 -3 -192 -48 l-41 -35 -48 31 c-65 41 -115 61 -157 61 -27 0 -35 4 -35
18 0 33 -59 109 -113 146 -94 65 -188 81 -280 48z m230 -88 c38 -27 66 -56 86
-93 29 -51 30 -54 14 -81 -23 -38 -21 -53 8 -88 l25 -30 -42 -36 c-72 -62
-154 -72 -264 -32 -102 37 -138 83 -159 207 -21 117 71 203 208 196 60 -4 76
-9 124 -43z m233 -169 c0 -3 -7 -17 -16 -30 -9 -13 -14 -30 -12 -37 3 -7 12 1
22 20 9 17 23 32 31 32 19 0 19 -5 -1 -35 -20 -31 -8 -32 24 -2 23 20 25 21
17 2 -20 -52 -17 -60 9 -30 29 34 33 28 11 -15 -19 -37 -4 -40 19 -5 9 14 21
23 27 19 9 -5 7 -21 -12 -71 l-8 -22 -83 36 c-46 19 -93 45 -105 56 -27 24
-30 62 -5 76 18 11 82 15 82 6z m479 -46 c28 -12 56 -27 62 -35 15 -18 -1 -17
-25 1 -11 8 -25 15 -30 15 -6 0 -5 -4 3 -9 8 -5 16 -17 17 -26 1 -9 6 -20 10
-23 4 -4 5 0 2 9 -5 12 1 16 23 16 21 0 36 -9 55 -34 33 -44 45 -84 46 -161 0
-62 -7 -86 -20 -67 -4 6 -11 10 -17 11 -53 6 -102 28 -117 54 -26 45 -75 72
-122 66 -46 -5 -65 -21 -48 -38 9 -9 12 -9 12 1 0 22 87 7 116 -20 27 -25 30
-35 12 -37 -7 0 -24 -2 -38 -3 -49 -4 -129 -30 -165 -55 l-36 -24 -24 52 c-13
29 -27 74 -30 99 -7 49 9 129 26 129 6 0 8 4 5 9 -9 14 32 59 72 81 47 26 138
21 211 -11z m-1975 -12 c-1 -12 2 -15 10 -8 38 31 75 -85 45 -140 -16 -32 -57
-42 -107 -28 -51 14 -71 40 -75 95 -1 29 2 39 13 39 9 0 14 -8 12 -20 l-2 -20
12 20 c7 11 13 23 13 27 0 4 9 14 20 23 11 9 13 13 5 9 -8 -4 -23 -14 -32 -22
-12 -10 -18 -11 -18 -3 0 16 61 52 85 49 12 -2 19 -10 19 -21z m920 -83 c16
-34 16 -38 0 -55 -20 -22 -159 -99 -179 -99 -36 0 -51 73 -19 97 25 19 30 17
44 -17 7 -16 17 -30 22 -30 10 0 7 30 -7 62 -5 12 -2 20 11 25 10 4 19 2 21
-4 2 -5 11 -19 19 -29 14 -18 15 -17 9 13 -9 47 3 61 27 32 l20 -24 -6 26 c-5
25 0 39 14 39 3 0 14 -16 24 -36z m652 -56 c29 -10 32 -14 37 -68 9 -104 93
-237 176 -280 36 -18 38 -22 59 -116 12 -53 21 -98 20 -98 -2 -1 -25 -12 -52
-25 -67 -34 -133 -101 -163 -167 -21 -47 -24 -67 -22 -128 l4 -73 -54 -43 -54
-43 -56 30 c-90 49 -208 66 -296 42 -27 -7 -55 -27 -87 -61 l-48 -51 -60 27
c-32 15 -82 29 -109 33 l-49 6 -4 61 c-4 73 -35 142 -88 197 -32 34 -40 51
-55 127 -9 48 -23 102 -31 121 -18 42 -18 41 6 41 32 0 115 84 140 142 17 39
21 65 18 112 -2 33 -7 68 -11 77 -6 12 5 21 45 40 29 13 72 39 95 57 l43 32
43 -22 c33 -17 64 -23 144 -26 92 -4 106 -2 156 21 30 13 67 40 82 60 l29 35
55 -25 c31 -14 70 -30 87 -35z m-1350 6 c46 -15 84 -28 84 -31 0 -2 -11 -21
-25 -41 -17 -25 -25 -31 -25 -19 0 10 -4 15 -10 12 -5 -3 -10 0 -10 7 -1 20
-30 -23 -30 -44 0 -10 -4 -18 -10 -18 -14 0 -12 22 5 64 23 54 -2 45 -26 -9
-11 -25 -24 -43 -30 -40 -5 4 -2 19 7 36 23 46 10 59 -16 16 -19 -32 -25 -36
-39 -25 -9 7 -17 13 -19 14 -2 1 6 17 17 35 12 19 21 42 21 52 0 22 7 22 106
-9z m400 4 c23 -10 30 -22 35 -53 11 -80 52 -126 92 -103 45 25 27 -141 -21
-201 -16 -20 -48 -49 -72 -65 -35 -24 -46 -27 -61 -18 -24 15 -71 15 -102 1
-21 -10 -32 -6 -80 25 -79 50 -111 101 -115 186 -3 54 0 75 17 109 28 53 94
118 135 131 40 12 136 6 172 -12z m-375 -149 c-5 -13 -10 -19 -10 -12 -1 15
10 45 15 40 3 -2 0 -15 -5 -28z m1733 -172 c35 -45 33 -54 -10 -49 -26 3 -35
1 -30 -7 4 -6 16 -11 27 -11 25 0 59 -17 59 -30 0 -6 -19 -7 -45 -3 -61 8 -59
-11 2 -23 29 -5 49 -15 51 -24 2 -12 -7 -14 -44 -12 -69 6 -77 -14 -8 -21 63
-7 59 -5 68 -33 6 -21 4 -22 -66 -21 l-73 0 -19 71 c-11 39 -21 92 -24 117 -3
40 0 49 19 63 36 25 65 20 93 -17z m-3463 -78 c41 -14 68 -37 80 -66 12 -33 2
-51 -26 -45 -33 6 -81 -43 -90 -91 -5 -24 -13 -37 -24 -38 -37 -3 -57 4 -81
27 -19 19 -25 35 -27 86 -3 39 1 72 9 88 25 47 89 62 159 39z m888 -68 c21
-11 45 -31 54 -44 39 -60 28 -161 -18 -173 -54 -13 -137 42 -150 99 -16 70
-14 79 15 108 34 34 48 36 99 10z m1152 -11 c10 -6 26 -24 34 -40 15 -30 15
-30 -12 -31 -16 0 -37 -4 -48 -9 -15 -6 -8 -9 30 -10 28 -1 41 -4 30 -7 -11
-2 -30 -6 -42 -9 -40 -8 -24 -19 22 -16 41 4 45 2 45 -18 0 -11 -3 -19 -7 -17
-5 3 -17 1 -28 -4 -16 -6 -14 -8 13 -8 24 -1 32 -6 32 -19 0 -15 -10 -17 -70
-17 l-70 0 0 72 c0 73 12 122 33 135 15 10 15 10 38 -2z m-1936 -114 c18 -13
18 -15 2 -39 -25 -39 -20 -56 7 -23 30 37 55 26 26 -11 -27 -34 -17 -43 15
-13 14 13 25 18 25 12 0 -6 -4 -14 -10 -17 -5 -3 -10 -11 -10 -17 0 -6 9 -3
19 6 13 12 21 14 26 6 5 -9 -10 -35 -51 -89 -7 -8 -97 73 -115 103 -19 31 -25
77 -12 89 11 12 58 8 78 -7z m640 -66 c3 -10 20 -31 36 -44 41 -35 28 -53 -17
-25 -19 12 -38 19 -41 15 -3 -3 8 -13 26 -23 38 -22 40 -37 4 -29 -20 5 -24 4
-13 -3 22 -15 -15 -26 -49 -15 -40 14 -41 69 -2 112 34 37 47 40 56 12z m-170
-9 c29 -7 30 -9 27 -59 -4 -61 12 -93 56 -111 24 -10 33 -23 47 -71 44 -146
-34 -296 -174 -337 -136 -39 -275 29 -340 166 -21 46 -26 70 -25 131 1 89 17
132 73 192 82 90 201 121 336 89z m1538 -91 c49 -23 121 -90 144 -134 8 -15
17 -52 20 -82 5 -49 4 -54 -14 -54 -26 0 -73 -37 -73 -57 0 -25 -67 -82 -106
-89 -84 -16 -203 58 -225 139 -28 105 10 200 105 265 56 37 89 40 149 12z
m1749 -187 c59 -26 59 -26 39 -47 -10 -12 -27 -37 -36 -56 -22 -44 -22 -43
-34 -36 -6 4 -4 23 6 52 17 49 10 75 -7 28 -20 -56 -25 -64 -37 -56 -9 6 -7
18 7 50 11 23 15 42 9 42 -6 0 -17 -16 -25 -35 -18 -43 -28 -46 -19 -5 4 19 3
30 -4 30 -6 0 -11 -6 -11 -14 0 -30 -20 -26 -37 8 -13 29 -14 38 -3 51 19 23
85 18 152 -12z m222 -70 c48 -10 74 -43 82 -103 8 -66 -7 -97 -62 -122 -64
-28 -126 -18 -170 26 -40 40 -49 71 -35 122 13 44 24 60 64 91 25 19 31 20 55
8 15 -7 45 -17 66 -22z m-909 -41 l38 -43 -22 -22 -23 -22 -15 23 c-9 12 -20
22 -25 22 -5 0 0 -13 12 -29 12 -17 16 -32 11 -36 -6 -3 -20 14 -32 37 -12 24
-24 38 -26 31 -2 -6 5 -30 17 -53 20 -40 21 -43 4 -61 -22 -25 -34 -24 -34 2
0 11 -12 45 -26 76 -22 45 -24 57 -13 64 8 4 30 19 49 33 19 15 37 25 40 24 4
-2 24 -22 45 -46z m-264 -30 c74 -38 101 -93 107 -211 4 -76 2 -89 -17 -113
-15 -18 -29 -25 -46 -23 -14 1 -28 -2 -31 -6 -3 -5 -35 -9 -72 -8 -47 1 -60 3
-42 9 23 7 24 8 5 14 -61 23 -94 40 -89 47 3 5 -6 5 -20 -1 -24 -9 -29 -5 -64
43 -49 67 -101 190 -73 173 5 -4 7 2 5 11 -5 23 13 44 51 63 52 25 68 28 151
29 71 1 89 -3 135 -27z m-536 4 c40 -10 108 -39 123 -51 1 -1 -3 -37 -9 -79
-8 -54 -15 -74 -23 -68 -6 5 -47 24 -91 42 -98 40 -119 53 -133 86 -16 34 -15
41 8 64 23 23 56 25 125 6z m-547 -34 l24 -36 -29 -23 c-25 -21 -29 -22 -40
-7 -7 9 -14 22 -16 28 -2 6 -7 8 -11 5 -3 -3 -1 -20 5 -38 10 -27 9 -35 -4
-48 -15 -15 -17 -14 -28 10 -7 15 -16 27 -21 27 -11 0 -10 -11 6 -40 10 -17
11 -30 5 -42 -13 -24 -23 -23 -39 7 -7 14 -17 25 -23 25 -5 0 1 -15 13 -34 26
-43 7 -63 -22 -23 -11 15 -24 27 -30 27 -6 0 1 -15 15 -33 17 -23 23 -38 17
-48 -7 -11 -15 -8 -40 16 -34 33 -41 23 -9 -11 19 -21 20 -26 9 -54 -12 -28
-30 -41 -30 -21 0 5 -16 32 -36 61 l-36 52 26 38 c14 22 51 58 82 82 56 42
174 117 184 117 3 0 16 -16 28 -37z m-1113 -152 c15 -29 15 -29 -22 -49 -21
-11 -32 -20 -25 -21 7 0 26 7 42 15 25 13 30 13 30 2 0 -8 -9 -22 -20 -32 -24
-22 -20 -31 8 -16 16 8 21 7 26 -6 7 -17 -9 -33 -31 -33 -7 0 -13 -4 -13 -8 0
-5 13 -7 29 -4 30 4 41 -13 41 -70 0 -41 -40 -37 -90 8 -37 34 -140 156 -140
166 0 3 17 10 38 16 20 7 51 23 67 36 38 32 41 32 60 -4z m707 -72 c69 -49
134 -150 123 -191 -4 -15 -3 -18 3 -8 7 9 11 0 16 -31 6 -42 5 -54 -11 -95 -3
-10 -7 -25 -9 -33 -5 -23 -64 -72 -80 -66 -9 3 -12 1 -9 -4 3 -6 -6 -15 -20
-20 -31 -12 -44 -13 -29 -2 12 8 44 75 44 92 0 6 4 8 10 5 6 -4 8 5 6 22 -2
15 -1 20 1 11 6 -26 22 -22 29 7 8 31 -9 80 -28 79 -7 -1 -15 8 -15 20 -6 81
-67 187 -119 206 -13 5 -24 12 -24 14 0 3 7 3 15 0 8 -4 15 -4 15 0 0 3 -15
10 -32 16 -29 9 -26 9 24 6 39 -3 68 -12 90 -28z m1328 -84 c0 -2 -11 2 -25 8
-14 6 -25 15 -25 20 0 5 11 1 25 -8 14 -9 25 -18 25 -20z m-1787 -46 c51 -25
125 -100 143 -143 19 -47 18 -98 -5 -126 -17 -21 -22 -22 -45 -11 -63 29 -125
2 -146 -64 -11 -32 -9 -41 13 -84 l25 -48 -46 -17 c-165 -64 -326 45 -324 218
1 65 28 130 73 172 26 26 28 26 57 11 71 -37 125 -7 129 70 1 27 2 51 2 52 2
9 90 -13 124 -30z m231 -100 c14 -24 26 -36 26 -27 0 8 -7 24 -15 35 -17 22
-19 34 -5 34 5 0 19 -17 30 -37 l21 -38 -6 35 -6 35 25 -28 c31 -34 33 -60 6
-87 -23 -23 -90 -28 -90 -7 0 6 -11 35 -24 64 -22 47 -23 52 -8 56 9 3 18 5
19 6 1 0 13 -18 27 -41z m1537 -24 c24 -5 27 -12 33 -66 3 -34 6 -75 6 -92 0
-29 -2 -31 -37 -31 -21 -1 -49 -4 -63 -8 l-25 -8 7 83 c3 46 7 96 7 112 1 24
4 27 24 22 12 -4 34 -9 48 -12z m-1697 -236 c-5 -29 -4 -31 7 -13 6 11 13 21
15 23 1 2 14 -4 28 -13 24 -16 25 -18 11 -45 -8 -16 -15 -38 -15 -50 0 -27
-16 -25 -61 6 -69 48 -75 124 -9 124 28 0 29 -2 24 -32z m266 -43 c49 -25 74
-94 56 -153 -10 -31 -56 -52 -112 -52 -39 0 -51 5 -80 34 -29 29 -34 41 -34
81 0 38 5 52 29 76 34 34 92 39 141 14z m1525 -25 c61 -29 89 -64 88 -106 -2
-70 -65 -124 -145 -124 -39 0 -54 6 -83 31 -56 49 -68 134 -29 197 12 19 23
22 71 22 36 0 72 -7 98 -20z m-2239 -43 c11 -12 32 -32 47 -44 l28 -22 -42
-58 c-24 -32 -71 -86 -104 -120 -71 -74 -108 -82 -150 -37 -44 47 -29 81 67
158 25 20 63 61 84 91 20 30 40 55 44 55 3 0 15 -10 26 -23z m-331 -162 c28
-7 44 -14 36 -14 -8 -1 -12 -4 -8 -7 3 -3 -1 -23 -8 -44 -9 -25 -10 -40 -3
-42 5 -2 11 -15 11 -30 1 -14 5 -24 10 -21 4 2 19 -5 34 -17 14 -11 46 -25 70
-31 l43 -11 0 -87 c-1 -144 -34 -187 -158 -206 -41 -6 -42 -5 -33 17 13 36 4
135 -17 189 -17 44 -82 139 -94 139 -6 0 -3 10 8 21 l19 21 -34 -7 c-30 -6
-33 -5 -27 11 6 15 5 17 -5 7 -21 -21 -34 -15 -15 6 11 12 24 17 34 13 16 -5
16 -5 0 11 -18 19 -33 23 -23 7 3 -5 -1 -10 -10 -10 -10 0 -13 5 -9 12 4 7 3
8 -5 4 -6 -4 -9 -11 -6 -16 3 -4 -2 -10 -10 -14 -8 -3 -15 -1 -15 4 0 5 -18
13 -40 16 -40 7 -40 7 -23 26 55 61 171 83 278 53z m-224 -296 c13 -13 19 -30
17 -47 -2 -22 -15 -33 -67 -59 -82 -42 -101 -43 -101 -3 0 17 -9 48 -20 69
l-19 39 37 10 c67 18 130 14 153 -9z m-271 -24 c76 -39 79 -165 6 -205 -62
-33 -121 -6 -161 73 -23 47 -24 52 -8 61 9 5 33 26 53 48 40 41 64 47 110 23z
m682 -222 c25 -23 23 -30 -12 -38 -16 -4 -30 -10 -30 -15 0 -8 49 2 69 14 5 3
14 -1 21 -9 10 -13 6 -18 -26 -32 -27 -11 -34 -18 -22 -20 9 -3 26 1 37 6 24
13 41 14 41 2 0 -5 -12 -14 -27 -20 -27 -11 -26 -11 10 -7 31 4 37 2 37 -13 0
-77 -162 -34 -231 62 l-31 42 49 13 c26 7 57 17 68 22 27 12 26 12 47 -7z
m202 -135 c24 -34 20 -108 -7 -149 -19 -29 -29 -34 -66 -37 -73 -5 -109 19
-123 86 -2 9 11 14 46 16 39 1 53 7 72 30 13 15 24 38 24 52 0 31 33 33 54 2z"/>
<path d="M3360 4101 c0 -9 81 -33 88 -26 6 6 -55 35 -73 35 -8 0 -15 -4 -15
-9z"/>
<path d="M3272 4039 c7 -22 77 -54 90 -41 8 8 6 13 -8 17 -16 6 -38 15 -78 33
-5 3 -7 -2 -4 -9z"/>
<path d="M3220 4011 c0 -5 12 -23 26 -40 26 -31 75 -51 106 -43 26 6 13 19
-27 26 -19 4 -48 20 -64 36 -31 31 -41 36 -41 21z"/>
<path d="M3880 3945 c-7 -9 -10 -18 -6 -22 3 -3 6 -1 6 7 0 10 3 10 15 0 12
-10 15 -10 15 3 0 23 -16 29 -30 12z"/>
<path d="M4130 3919 c0 -5 5 -7 10 -4 6 3 10 8 10 11 0 2 -4 4 -10 4 -5 0 -10
-5 -10 -11z"/>
<path d="M4024 3913 c8 -8 56 -11 51 -3 -3 4 -16 8 -30 8 -14 0 -24 -3 -21 -5z"/>
<path d="M4003 3895 c0 -7 6 -11 14 -8 7 3 13 6 13 8 0 2 -6 5 -13 8 -8 3 -14
-1 -14 -8z"/>
<path d="M4206 3902 c-4 -7 -12 -9 -18 -6 -7 4 -8 2 -4 -4 4 -6 14 -8 23 -5
12 5 14 3 8 -8 -7 -11 -6 -12 7 -2 8 7 18 10 21 6 4 -3 7 -1 7 6 0 7 -6 11
-14 8 -8 -3 -16 -1 -19 6 -2 8 -5 8 -11 -1z"/>
<path d="M4120 3880 c-8 -15 -7 -18 3 -15 7 3 28 -10 47 -29 19 -20 41 -36 48
-36 7 0 11 -4 7 -9 -3 -5 -2 -12 2 -14 5 -3 8 17 8 43 0 26 -3 46 -8 43 -4 -2
-4 -10 -1 -16 4 -7 -4 -2 -17 9 -23 21 -62 44 -73 44 -3 0 -10 -9 -16 -20z"/>
<path d="M4063 3877 c-2 -4 -14 -5 -26 -2 -17 5 -19 4 -7 -4 8 -6 15 -16 15
-22 0 -7 7 -14 15 -16 13 -4 13 -3 0 6 -13 9 -13 11 1 11 24 0 30 -11 16 -29
-11 -14 -10 -15 7 -1 17 13 21 12 47 -19 18 -22 33 -32 43 -28 9 4 16 2 16 -4
0 -6 5 -7 10 -4 6 3 10 11 10 16 0 6 -4 8 -10 4 -5 -3 -15 6 -22 19 -7 14 -16
25 -20 26 -5 0 -21 8 -38 18 -22 14 -27 21 -18 30 8 8 5 11 -11 9 -13 -1 -25
-5 -28 -10z"/>
<path d="M4257 3867 c-3 -8 1 -14 8 -14 7 0 11 6 8 14 -3 7 -6 13 -8 13 -2 0
-5 -6 -8 -13z"/>
<path d="M3927 3823 c4 -9 10 -10 24 -2 24 13 24 14 -5 14 -14 0 -22 -5 -19
-12z"/>
<path d="M4282 3780 c0 -14 2 -19 5 -12 2 6 2 18 0 25 -3 6 -5 1 -5 -13z"/>
<path d="M4006 3761 c-3 -4 6 -6 19 -3 20 3 27 -1 35 -22 13 -36 21 -33 9 4
-8 22 -17 30 -34 30 -13 0 -26 -4 -29 -9z"/>
<path d="M4233 3738 c1 -15 6 -23 11 -18 4 4 4 16 -2 26 -9 16 -10 14 -9 -8z"/>
<path d="M4090 3741 c0 -6 4 -13 10 -16 6 -3 7 1 4 9 -7 18 -14 21 -14 7z"/>
<path d="M4006 3725 c4 -8 11 -15 16 -15 6 0 5 6 -2 15 -7 8 -14 15 -16 15 -2
0 -1 -7 2 -15z"/>
<path d="M4261 3724 c0 -11 3 -14 6 -6 3 7 2 16 -1 19 -3 4 -6 -2 -5 -13z"/>
<path d="M4281 3714 c0 -11 3 -14 6 -6 3 7 2 16 -1 19 -3 4 -6 -2 -5 -13z"/>
<path d="M3901 3694 c0 -11 3 -14 6 -6 3 7 2 16 -1 19 -3 4 -6 -2 -5 -13z"/>
<path d="M2186 3955 c5 -11 3 -16 -2 -12 -6 3 -11 -4 -11 -16 -2 -15 0 -18 6
-8 5 7 14 17 20 21 9 5 8 10 -4 20 -13 11 -14 10 -9 -5z"/>
<path d="M2120 3940 c8 -5 20 -10 25 -10 6 0 3 5 -5 10 -8 5 -19 10 -25 10 -5
0 -3 -5 5 -10z"/>
<path d="M2090 3916 c0 -2 7 -7 16 -10 8 -3 12 -2 9 4 -6 10 -25 14 -25 6z"/>
<path d="M2130 3916 c0 -2 7 -7 16 -10 8 -3 12 -2 9 4 -6 10 -25 14 -25 6z"/>
<path d="M2100 3872 c0 -23 99 -40 115 -19 3 4 2 5 -2 2 -3 -3 -11 -1 -17 4
-17 13 -96 24 -96 13z"/>
<path d="M2090 3845 c14 -8 30 -14 35 -14 6 0 -1 6 -15 14 -14 8 -29 14 -35
14 -5 0 1 -6 15 -14z"/>
<path d="M2164 3818 c10 -6 22 -6 26 -2 5 5 -3 10 -18 11 -22 1 -24 0 -8 -9z"/>
<path d="M2601 3697 c-1 -26 25 -73 45 -81 27 -10 28 1 3 32 -13 16 -29 38
-36 48 -11 18 -12 18 -12 1z"/>
<path d="M2666 3697 c6 -15 44 -40 44 -29 0 10 -33 42 -43 42 -3 0 -4 -6 -1
-13z"/>
<path d="M2845 3630 c3 -5 17 -10 31 -10 14 0 22 4 19 10 -3 6 -17 10 -31 10
-14 0 -22 -4 -19 -10z"/>
<path d="M2780 3580 c0 -5 14 -10 31 -10 17 0 28 4 24 10 -3 6 -17 10 -31 10
-13 0 -24 -4 -24 -10z"/>
<path d="M610 3360 c20 -13 33 -13 25 0 -3 6 -14 10 -23 10 -15 0 -15 -2 -2
-10z"/>
<path d="M562 3318 c9 -13 24 -25 34 -27 15 -2 13 2 -9 23 -34 32 -44 33 -25
4z"/>
<path d="M1498 3288 c22 -35 76 -78 98 -78 26 0 14 16 -21 29 -21 7 -45 27
-58 47 -28 43 -46 45 -19 2z"/>
<path d="M1550 3302 c0 -10 22 -32 32 -32 15 0 8 15 -12 28 -11 7 -20 9 -20 4z"/>
<path d="M1061 3119 c-13 -5 -22 -12 -19 -14 6 -6 108 14 108 21 0 8 -65 3
-89 -7z"/>
<path d="M1098 3063 c12 -2 30 -2 40 0 9 3 -1 5 -23 4 -22 0 -30 -2 -17 -4z"/>
<path d="M1020 2831 c0 -16 80 -41 129 -41 35 0 55 6 72 21 l24 21 -25 -7
c-61 -16 -127 -17 -163 -2 -20 9 -37 12 -37 8z"/>
<path d="M1060 2771 c0 -16 78 -41 110 -35 51 11 36 29 -21 25 -29 -2 -56 2
-62 8 -13 13 -27 14 -27 2z"/>
<path d="M1080 2700 c0 -5 15 -10 33 -10 24 0 28 3 17 10 -20 13 -50 13 -50 0z"/>
<path d="M2720 2914 c-31 -27 -90 -118 -90 -141 0 -24 16 -13 33 23 10 19 37
57 62 83 25 26 45 51 45 55 0 13 -20 5 -50 -20z"/>
<path d="M2631 2889 c-20 -33 -26 -49 -17 -49 8 0 47 73 42 77 -3 3 -14 -10
-25 -28z"/>
<path d="M2779 2881 c-17 -18 -29 -40 -29 -56 0 -25 2 -24 50 25 28 28 50 53
50 56 0 15 -47 -1 -71 -25z"/>
<path d="M4640 2722 c0 -9 55 -21 76 -16 41 10 26 22 -26 21 -27 -1 -50 -3
-50 -5z"/>
<path d="M4662 2679 c6 -18 52 -24 75 -10 15 9 13 10 -14 11 -17 0 -39 3 -49
7 -12 4 -15 2 -12 -8z"/>
<path d="M3453 2773 c9 -2 23 -2 30 0 6 3 -1 5 -18 5 -16 0 -22 -2 -12 -5z"/>
<path d="M3335 2760 c-3 -5 -1 -10 4 -10 6 0 11 5 11 10 0 6 -2 10 -4 10 -3 0
-8 -4 -11 -10z"/>
<path d="M3272 2723 c-15 -13 -14 -13 6 -3 12 6 27 8 32 5 5 -3 17 -2 26 3 12
6 8 9 -16 9 -17 0 -38 -7 -48 -14z"/>
<path d="M3593 2733 c16 -3 25 -9 21 -15 -4 -7 -2 -8 5 -4 18 12 2 26 -27 25
l-27 -2 28 -4z"/>
<path d="M3615 2670 c21 -24 26 -25 19 -6 -3 8 -13 17 -22 21 -13 5 -13 2 3
-15z"/>
<path d="M3650 2681 c0 -6 4 -13 10 -16 6 -3 7 1 4 9 -7 18 -14 21 -14 7z"/>
<path d="M3681 2584 c0 -11 3 -14 6 -6 3 7 2 16 -1 19 -3 4 -6 -2 -5 -13z"/>
<path d="M3425 2550 c-3 -6 1 -7 9 -4 18 7 21 14 7 14 -6 0 -13 -4 -16 -10z"/>
<path d="M3363 2534 c0 -7 4 -11 9 -8 4 3 8 1 8 -5 0 -6 17 -22 37 -36 44 -29
127 -36 136 -11 5 11 -3 15 -34 14 -25 0 -61 11 -98 29 -38 19 -58 25 -58 17z"/>
<path d="M3438 2518 c5 -5 16 -8 23 -6 8 3 3 7 -10 11 -17 4 -21 3 -13 -5z"/>
<path d="M3478 2443 c7 -3 16 -2 19 1 4 3 -2 6 -13 5 -11 0 -14 -3 -6 -6z"/>
<path d="M3640 2439 c0 -5 5 -7 10 -4 6 3 10 8 10 11 0 2 -4 4 -10 4 -5 0 -10
-5 -10 -11z"/>
<path d="M3040 2714 c-12 -32 -13 -82 -1 -68 13 14 30 94 20 94 -5 0 -14 -12
-19 -26z"/>
<path d="M3000 2693 c0 -28 3 -34 10 -23 13 20 13 60 0 60 -5 0 -10 -17 -10
-37z"/>
<path d="M3085 2669 c-6 -44 -2 -71 9 -58 9 10 16 109 7 109 -5 0 -12 -23 -16
-51z"/>
<path d="M2120 2468 c0 -18 15 -31 39 -35 12 -1 12 0 0 10 -8 7 -20 18 -26 26
-11 13 -13 13 -13 -1z"/>
<path d="M2181 2364 c0 -11 3 -14 6 -6 3 7 2 16 -1 19 -3 4 -6 -2 -5 -13z"/>
<path d="M2211 2274 c0 -11 3 -14 6 -6 3 7 2 16 -1 19 -3 4 -6 -2 -5 -13z"/>
<path d="M2211 2235 c1 -19 18 -51 18 -35 0 8 -4 22 -9 30 -5 8 -9 11 -9 5z"/>
<path d="M2176 2154 c-9 -23 3 -37 20 -23 8 6 14 16 14 22 0 6 -7 2 -16 -9
-15 -18 -15 -18 -9 4 7 25 0 30 -9 6z"/>
<path d="M1570 2281 c0 -6 8 -16 18 -23 10 -7 27 -26 37 -41 11 -18 21 -25 27
-19 13 13 -4 45 -38 71 -29 23 -44 27 -44 12z"/>
<path d="M1430 2153 c0 -14 61 -66 68 -58 3 3 3 6 1 8 -2 1 -19 15 -37 31 -17
17 -32 25 -32 19z"/>
<path d="M1345 2108 c12 -39 34 -67 65 -83 40 -21 38 -11 -5 26 -19 17 -38 42
-41 55 -3 13 -10 24 -16 24 -5 0 -6 -10 -3 -22z"/>
<path d="M1330 2069 c0 -20 37 -69 52 -69 7 0 2 10 -9 23 -11 12 -25 31 -31
42 -9 16 -11 17 -12 4z"/>
<path d="M3370 2186 c0 -2 14 -6 30 -8 17 -3 30 -1 30 4 0 4 -13 8 -30 8 -16
0 -30 -2 -30 -4z"/>
<path d="M3350 2150 c8 -5 33 -10 55 -10 29 0 36 3 25 10 -8 5 -33 10 -55 10
-29 0 -36 -3 -25 -10z"/>
<path d="M1880 1913 c0 -20 39 -46 57 -38 17 8 17 8 -2 13 -11 2 -28 11 -37
20 -10 8 -18 11 -18 5z"/>
<path d="M1870 1859 c0 -12 24 -22 45 -17 12 2 7 7 -14 15 -18 6 -31 7 -31 2z"/>
<path d="M3406 1872 c-6 -11 36 -32 64 -32 30 0 32 17 2 23 -15 3 -34 8 -43
12 -10 3 -20 2 -23 -3z"/>
<path d="M3410 1801 c0 -12 26 -21 58 -20 26 0 25 1 -8 14 -43 17 -50 17 -50
6z"/>
<path d="M1235 1810 c3 -5 11 -10 16 -10 6 0 7 5 4 10 -3 6 -11 10 -16 10 -6
0 -7 -4 -4 -10z"/>
<path d="M1160 1761 c0 -10 24 -21 43 -21 7 0 3 7 -7 15 -22 17 -36 19 -36 6z"/>
<path d="M1110 1726 c0 -3 7 -12 16 -20 23 -23 40 -19 19 4 -16 18 -35 26 -35
16z"/>
<path d="M709 1718 c0 -2 -2 -11 -4 -21 -3 -15 -1 -16 11 -6 7 6 11 15 8 20
-5 9 -13 12 -15 7z"/>
<path d="M908 1703 c7 -3 16 -2 19 1 4 3 -2 6 -13 5 -11 0 -14 -3 -6 -6z"/>
<path d="M830 1670 c-9 -6 -10 -10 -3 -10 6 0 15 5 18 10 8 12 4 12 -15 0z"/>
<path d="M860 1570 c0 -5 5 -10 11 -10 5 0 7 5 4 10 -3 6 -8 10 -11 10 -2 0
-4 -4 -4 -10z"/>
<path d="M969 1553 c0 -5 -2 -16 -4 -26 -2 -11 -1 -16 3 -13 8 8 14 46 7 46
-3 0 -5 -3 -6 -7z"/>
<path d="M1016 1542 c-3 -5 1 -9 9 -9 8 0 12 4 9 9 -3 4 -7 8 -9 8 -2 0 -6 -4
-9 -8z"/>
<path d="M995 1490 c4 -6 11 -8 16 -5 14 9 11 15 -7 15 -8 0 -12 -5 -9 -10z"/>
<path d="M1023 1472 c-8 -5 -8 -12 2 -25 12 -17 13 -16 11 7 0 15 -1 26 -1 26
0 0 -5 -4 -12 -8z"/>
<path d="M964 1440 c-21 -11 -27 -19 -20 -26 14 -14 66 3 66 21 0 21 -12 23
-46 5z"/>
<path d="M1000 1399 c0 -5 5 -7 10 -4 6 3 10 8 10 11 0 2 -4 4 -10 4 -5 0 -10
-5 -10 -11z"/>
<path d="M970 1392 c0 -5 7 -15 15 -22 8 -7 15 -9 15 -6 0 4 -7 14 -15 22 -8
9 -15 11 -15 6z"/>
<path d="M948 1373 c6 -2 9 -10 6 -15 -4 -7 -2 -8 5 -4 13 9 5 26 -12 25 -9 0
-8 -2 1 -6z"/>
<path d="M1060 1350 c0 -5 5 -10 11 -10 5 0 7 5 4 10 -3 6 -8 10 -11 10 -2 0
-4 -4 -4 -10z"/>
<path d="M1044 1305 c2 -16 7 -28 12 -26 10 3 8 16 -6 41 -6 10 -8 6 -6 -15z"/>
<path d="M1008 1263 c7 -3 16 -2 19 1 4 3 -2 6 -13 5 -11 0 -14 -3 -6 -6z"/>
<path d="M958 1253 c6 -2 18 -2 25 0 6 3 1 5 -13 5 -14 0 -19 -2 -12 -5z"/>
<path d="M630 1410 c11 -20 30 -28 30 -12 0 11 -22 32 -32 32 -5 0 -4 -9 2
-20z"/>
<path d="M589 1385 c18 -38 31 -45 31 -17 0 17 -28 52 -42 52 -3 0 2 -16 11
-35z"/>
<path d="M384 1306 c11 -9 24 -16 30 -16 12 0 7 5 -24 19 -24 11 -24 11 -6 -3z"/>
<path d="M1210 946 c0 -28 59 -35 85 -10 22 22 13 27 -19 13 -20 -10 -29 -10
-38 -1 -16 16 -28 15 -28 -2z"/>
<path d="M4030 3000 c0 -16 68 -86 75 -78 4 4 -4 21 -19 38 -14 17 -26 36 -26
41 0 5 -7 9 -15 9 -8 0 -15 -5 -15 -10z"/>
<path d="M3960 2975 c0 -22 33 -77 54 -91 39 -25 44 -8 9 29 -16 17 -33 40
-36 50 -6 15 -27 25 -27 12z"/>
</g>
</svg>
