<?xml version="1.0" standalone="no"?>
<!DOCTYPE svg PUBLIC "-//W3C//DTD SVG 20010904//EN"
 "http://www.w3.org/TR/2001/REC-SVG-20010904/DTD/svg10.dtd">
<svg version="1.0" xmlns="http://www.w3.org/2000/svg"
 width="1024.000000pt" height="1024.000000pt" viewBox="0 0 1024.000000 1024.000000"
 preserveAspectRatio="xMidYMid meet">

<g transform="translate(0.000000,1024.000000) scale(0.100000,-0.100000)"
fill="#000000" stroke="none">
<path d="M4108 9090 c-49 -15 -93 -48 -115 -88 -63 -110 -29 -256 71 -314 l41
-23 1003 -3 c717 -2 1015 1 1045 9 57 15 121 81 137 139 28 102 -10 212 -90
258 l-45 27 -1010 2 c-555 1 -1022 -2 -1037 -7z"/>
<path d="M4340 6982 l0 -1478 -324 -539 c-1129 -1884 -1860 -3141 -2019 -3474
-49 -102 -51 -109 -51 -191 1 -141 61 -256 174 -329 110 -72 -145 -66 3020
-66 3165 0 2910 -6 3020 66 113 73 174 188 174 329 0 79 -3 91 -42 173 -150
318 -755 1362 -1918 3308 l-434 725 0 1477 0 1477 -100 0 -100 0 0 -1502 0
-1501 259 -436 c1156 -1948 1985 -3387 2111 -3665 43 -95 38 -137 -27 -198
-66 -63 175 -58 -2943 -58 -2546 0 -2845 2 -2878 16 -67 28 -122 95 -122 150
0 53 154 344 540 1019 395 691 1569 2692 1839 3136 l21 34 0 1503 0 1502 -100
0 -100 0 0 -1478z"/>
</g>
</svg>

